<?xml version="1.0" encoding="UTF-8" standalone="no"?><!DOCTYPE svg PUBLIC "-//W3C//DTD SVG 1.1//EN" "http://www.w3.org/Graphics/SVG/1.1/DTD/svg11.dtd"><svg width="100%" height="100%" viewBox="0 0 2344 563" version="1.1" xmlns="http://www.w3.org/2000/svg" xmlns:xlink="http://www.w3.org/1999/xlink" xml:space="preserve" xmlns:serif="http://www.serif.com/" style="fill-rule:evenodd;clip-rule:evenodd;stroke-linejoin:round;stroke-miterlimit:2;"><g><path d="M2100.68,227.048c-20.359,0.396 -40.636,3.082 -58.858,12.078c-14.49,7.149 -27.387,17.529 -40.941,26.555c-1.237,0.823 -2.19,2.138 -3.118,3.349c-6.962,9.121 -14.329,17.973 -20.742,27.469c-25.955,38.429 -51.496,77.133 -77.403,115.592c-33.813,50.202 -67.805,100.279 -101.723,150.407l24.138,-0c4.032,-6.749 8.012,-13.533 11.939,-20.347c1.768,-3.074 2.992,-6.461 4.616,-10.036c1.206,-1.28 2.986,-2.791 4.31,-4.633c6.871,-9.57 13.602,-19.236 20.421,-28.845c14.742,-20.773 29.577,-41.486 44.246,-62.311c12.774,-18.139 25.005,-36.679 38.267,-54.452c4.359,-5.839 6.201,-10.977 4.22,-17.839c-0.588,-2.033 -0.027,-4.402 0.008,-6.618c0.636,-0.022 1.276,-0.048 1.916,-0.074c0.666,3.988 1.337,7.972 2.155,12.862c1.372,-1.489 1.96,-1.977 2.36,-2.586c13.363,-20.155 26.948,-40.167 39.988,-60.53c11.756,-18.353 27.23,-32.869 44.781,-45.383c2.569,-1.833 5.569,-3.222 8.552,-4.302c16.271,-5.908 33.291,-8.246 50.416,-8.769c12.587,-0.387 25.227,-1.454 37.889,0.257c7.297,0.989 14.825,0.144 22.197,0.766c15.187,1.276 29.703,4.694 43.666,9.841c6.78,-3.941 13.185,-8.439 19.176,-13.433c-24.096,-10.293 -49.563,-16.319 -75.874,-19.21c-15.344,-1.685 -31.058,-0.109 -46.602,0.192" style="fill:#231f20;fill-rule:nonzero;"/><path d="M2170.59,205.466c-36.839,-6.127 -73.64,-4.402 -110.24,2.481c-8.861,1.664 -18.292,2.391 -26.294,6.079c-18.701,8.612 -36.971,18.383 -50.712,34.479c-8.721,10.211 -17.604,20.312 -25.815,30.923c-5.029,6.505 -8.795,13.968 -13.345,20.856c-17.796,26.956 -35.83,53.751 -53.464,80.811c-9.775,15 -18.64,30.596 -28.449,45.57c-10.067,15.361 -21.205,30.021 -31.141,45.465c-18.801,29.22 -36.509,59.159 -55.732,88.096c-0.509,0.762 -1.036,1.511 -1.545,2.273l19.619,-0c17.429,-25.563 34.854,-51.13 52.17,-76.767c10.363,-15.343 20.351,-30.94 30.723,-46.275c8.999,-13.31 18.278,-26.433 27.487,-39.6c2.804,-4.014 4.354,-8.173 3.361,-13.215c-0.379,-1.928 0.344,-4.071 0.562,-6.113l1.493,0.148c-0.013,3.009 -0.021,6.018 -0.035,9.619c1.359,-1.398 2.447,-2.256 3.218,-3.344c5.848,-8.234 11.817,-16.393 17.399,-24.805c16.676,-25.119 32.843,-50.59 49.95,-75.408c6.975,-10.124 14.477,-20.817 24.173,-27.932c18.906,-13.872 38.155,-28.214 62.86,-30.818c12.135,-1.28 24.235,-2.878 36.365,-4.184c13.441,-1.45 27.165,1.18 40.441,-2.813c0.836,-0.252 1.881,-0.257 2.717,0c6.374,1.946 12.509,5.465 19.554,2.661c0.635,-0.249 1.541,-0.044 2.26,0.165c14.329,4.223 28.675,8.412 42.965,12.762c5.543,1.685 11.016,3.609 16.45,5.621c4.733,-4.298 9.187,-8.891 13.293,-13.798c-5.66,-2.351 -11.312,-4.742 -16.855,-7.35c-17.059,-8.02 -35.085,-12.535 -53.433,-15.587m-225.179,125.527c-0.161,-2.469 -0.161,-4.902 -0.513,-7.293c-0.336,-2.251 -1.037,-4.45 -1.577,-6.675c5.447,3.606 5.948,10.742 2.09,13.968" style="fill:#231f20;fill-rule:nonzero;"/><path d="M1657.92,559.754c1.632,-1.385 3.953,-2.151 5.181,-3.788c3.043,-4.062 6.927,-7.859 6.074,-13.772c-0.144,-1.028 0.77,-2.303 1.411,-3.327c2.838,-4.541 5.729,-9.052 8.677,-13.523c0.462,-0.701 1.293,-1.163 1.955,-1.733c0.218,0.178 0.431,0.357 0.645,0.54c-1.024,2.177 -2.051,4.354 -3.074,6.531c1.415,-0.44 2.129,-1.202 2.682,-2.068c2.111,-3.331 5.098,-5.926 3.304,-11.051c-0.888,-2.543 1.559,-6.609 3.214,-9.592c2.429,-4.398 5.495,-8.442 8.294,-12.635c-0.374,-0.34 -0.744,-0.675 -1.114,-1.015c-3.479,2.051 -6.958,4.102 -10.437,6.152c-0.113,-0.331 -0.227,-0.661 -0.335,-0.992c2.177,-4.846 4.358,-9.688 6.557,-14.578c1.276,0.827 2.029,1.315 2.055,1.333c3.953,-6.64 7.707,-12.949 11.669,-19.602c-4.385,-1.55 -2.586,-4.228 -0.714,-6.697c2.416,-3.192 5.203,-6.139 3.413,-10.694c-0.213,-0.548 0.292,-1.493 0.653,-2.142c4.028,-7.206 7.995,-14.455 12.253,-21.522c0.692,-1.145 2.743,-1.472 4.071,-2.133c1.881,-4.428 3.614,-9.475 6.082,-14.129c7.254,-13.681 18.035,-25.128 25.006,-39.008c0.135,-0.27 0.339,-0.523 0.562,-0.727c6.139,-5.604 8.25,-13.838 13.218,-20.229c2.33,-2.992 4.202,-6.331 6.693,-10.137c3.322,8.839 2.586,11.343 -3.179,16.145c-2.19,1.824 -4.062,4.119 -5.73,6.453c-1.35,1.885 -1.802,3.744 0.244,6.087c2.682,3.074 1.585,11.608 -1.306,14.072c-0.274,-1.101 -0.505,-2.125 -0.788,-3.13c-0.296,-1.058 -0.645,-2.103 -0.971,-3.153c-0.984,1.52 -0.706,2.931 -0.845,4.302c-0.152,1.485 -0.692,2.926 -1.058,4.389c-1.315,-0.801 -3.161,-1.315 -3.792,-2.482c-0.71,-1.319 -0.584,-3.27 -0.344,-4.872c0.248,-1.655 1.066,-3.226 2.077,-6.07c-5.661,5.291 -6.989,7.707 -5.338,11.434c1.711,3.875 -0.34,4.337 -2.238,4.393c-0.379,4.546 -0.292,8.796 -1.193,12.819c-0.906,4.032 -2.805,7.841 -4.572,12.561c-1.254,-3.113 -2.164,-5.364 -3.07,-7.615c-1.18,3.414 -1.38,6.67 -1.437,9.936c-0.061,3.457 0.392,7.154 -4.672,7.846c-0.862,-2.499 -1.615,-4.681 -2.364,-6.858c-0.422,0.07 -0.849,0.14 -1.271,0.209c0.918,5.021 -2.391,9.327 -0.814,14.991c0.984,3.536 -2.556,8.365 -4.267,12.531c-0.118,0.288 -1.925,-0.117 -2.883,-0.191c-0.653,3.77 -1.267,7.315 -1.885,10.859l1.136,0.352c1.402,-2.142 2.865,-4.245 4.193,-6.426c15.3,-25.08 30.592,-50.163 45.866,-75.256c25.863,-42.491 51.87,-84.9 77.515,-127.521c15.453,-25.685 32.799,-49.915 53.782,-71.333c21.413,-21.862 46.296,-39.174 73.13,-53.777c3.04,-1.655 5.526,-4.324 8.574,-6.762c9.97,-2.726 20.542,-6.126 31.349,-8.421c11.207,-2.377 22.597,-4.097 33.992,-5.355c11.216,-1.237 22.528,-1.681 33.814,-2.208c11.194,-0.522 22.401,-0.718 33.604,-1.058c0.018,0.518 0.04,1.036 0.057,1.555c-1.79,0.209 -3.579,0.553 -5.373,0.6c-24.579,0.645 -49.214,0.527 -73.505,5.186c-11.264,2.16 -22.628,3.928 -33.74,6.701c-14.081,3.509 -26.05,11.595 -38.464,18.805c-32.629,18.936 -60.83,42.814 -84.164,72.508c-17.66,22.48 -31.58,47.342 -46.431,71.616c-25.158,41.124 -50.316,82.244 -75.456,123.381c-1.742,2.843 -3.327,5.782 -4.986,8.678c0.266,0.148 0.532,0.3 0.797,0.448c2.081,-1.328 4.158,-2.656 6.745,-4.306c0.187,6.152 -1.207,10.576 -5.909,13.742c-3.257,2.19 -5.795,4.885 -4.911,9.5c0.731,3.81 2.259,9.57 -1.873,10.646c-5.468,1.424 -2.063,8.286 -7.149,8.712c-0.292,0.026 -0.592,-0.065 -1.128,-0.13c-2.046,-4.886 -2.325,-9.462 1.733,-13.807c2.922,-3.131 5.321,-6.688 4.502,-12.527c-2.346,3.666 -4.275,6.497 -6.021,9.44c-19.846,33.426 -39.653,66.874 -59.485,100.304c-7.424,12.518 -15.649,24.27 -24.64,35.338l23.246,-0c4.285,-4.372 8.077,-9.052 8.569,-16.023c0.322,-4.602 2.608,-5.804 6.836,-4.681c1.881,-2.926 3.853,-5.843 5.682,-8.851c16.611,-27.327 33.113,-54.722 49.823,-81.987c8.399,-13.703 17.299,-27.096 25.724,-40.781c13.959,-22.671 27.636,-45.517 41.59,-68.193c13.393,-21.761 27.117,-43.323 40.436,-65.128c7.093,-11.608 13.028,-23.965 20.573,-35.255c13.472,-20.163 30.392,-37.575 47.486,-54.604c9.657,-9.627 21.156,-17.416 31.919,-25.911c16.067,-12.683 34.141,-21.797 53.111,-29.168c6.079,-2.36 12.335,-4.742 20.486,-2.817c-6.836,2.168 -12.47,3.953 -18.104,5.739c-15.775,5.007 -30.761,11.799 -44.381,21.195c-22.585,15.575 -43.523,33.039 -61.14,54.308c-11.407,13.777 -23.93,26.617 -32.877,42.339c-12.714,22.332 -25.463,44.651 -38.73,66.652c-9.635,15.98 -20.194,31.402 -30.16,47.19c-1.28,2.024 -1.637,4.706 -2.125,7.145c-0.749,3.722 -1.241,7.493 -1.846,11.246l-1.224,0.039c-0.496,-1.807 -0.988,-3.605 -1.898,-6.923c-3.67,6.758 -6.392,12.71 -9.984,18.24c-21.522,33.095 -42.178,66.765 -62.733,100.478c-13.598,22.302 -27.148,44.56 -42.313,65.751l13.798,-0c0.183,-0.357 0.405,-0.71 0.684,-1.054c1.249,-1.532 4.702,-1.275 7.162,-1.824c0.375,0.544 0.749,1.093 1.128,1.637c-0.218,0.409 -0.44,0.836 -0.658,1.241l3.087,-0c3.719,-5.604 7.428,-11.216 11.186,-16.798c2.033,-3.022 4.694,-5.678 3.043,-9.853c-0.204,-0.518 0.632,-1.45 1.098,-2.421c1.106,1.027 1.894,1.763 3.087,2.874c2.534,-3.954 5.09,-7.407 7.097,-11.156c17.673,-32.942 37.623,-64.496 58.031,-95.785c13.462,-20.638 26.699,-41.433 39.826,-62.289c5.787,-9.191 9.971,-19.584 16.777,-27.883c11.856,-14.46 21.221,-30.361 30.121,-46.571c13.066,-23.795 26.386,-47.307 45.321,-67.144c9.797,-10.267 18.039,-22.041 29.917,-30.261c7.158,-4.955 14.351,-9.879 21.265,-15.161c9.266,-7.08 18.888,-13.406 30.187,-16.772c9.475,-2.821 18.827,-6.23 28.471,-8.229c8.791,-1.824 17.943,-1.829 26.869,-3.113c21.418,-3.087 42.822,-3.248 64.397,-1.681c16.158,1.176 32.176,5.225 48.543,2.926c0.261,-0.039 0.562,0.201 0.841,0.314c8.743,3.553 17.455,7.201 26.255,10.611c3.509,1.358 6.753,5.055 11.094,1.876c0.161,-0.117 0.574,0.113 0.871,0.183c5.943,1.389 11.912,2.673 17.803,4.25c1.354,0.361 2.447,1.715 3.658,2.616c-0.161,0.514 -0.322,1.028 -0.484,1.546c-2.573,-0.157 -5.168,-0.161 -7.719,-0.505c-2.243,-0.3 -4.472,-0.853 -6.64,-1.511c-8.687,-2.643 -17.617,-4.737 -25.955,-8.225c-9.248,-3.87 -18.478,-7.062 -28.545,-7.654c-6.536,-0.379 -13.088,-0.819 -19.572,-1.698c-20.62,-2.8 -41.302,-3.779 -62.058,-2.26c-12.792,0.941 -25.611,1.868 -38.324,3.518c-9.349,1.211 -18.71,3.004 -27.779,5.556c-16.354,4.598 -30.535,13.389 -43.994,23.721c-14.647,11.246 -30.099,21.383 -41.516,36.382c-9.992,13.128 -21.552,25.154 -30.692,38.817c-10.271,15.352 -18.213,32.233 -27.887,48.008c-9.671,15.77 -20.377,30.905 -30.348,46.497c-6.348,9.923 -12.087,20.233 -18.257,30.274c-27.4,44.585 -57.678,87.36 -82.766,133.43c-8.277,15.204 -18.697,29.237 -28.563,43.571l24.039,-0c4.602,-7.454 9.161,-14.939 13.707,-22.428c8.716,-14.368 20.433,-27.2 23.986,-44.703c0.536,0.205 1.668,0.64 3.07,1.176c9.322,-14.9 18.439,-29.586 27.7,-44.185c1.864,-2.939 3.614,-5.652 1.99,-9.27c-0.165,-0.366 0.331,-1.028 0.605,-1.794c1.032,0.871 1.829,1.541 2.857,2.412c5.547,-8.373 11.163,-16.571 16.419,-24.992c1.106,-1.777 0.871,-4.376 1.328,-6.579c0.169,-0.836 0.544,-1.624 0.879,-2.591c1.481,0.488 2.704,0.884 4.128,1.35c6.457,-11.12 12.483,-22.132 19.114,-32.769c10.763,-17.281 21.592,-34.541 32.995,-51.404c18.257,-26.991 33.27,-56.159 54.278,-81.286c4.585,-5.486 9.749,-10.502 14.821,-15.561c4.11,-4.097 8.66,-7.759 12.701,-11.922c10.55,-10.872 22.628,-19.345 36.548,-25.475c16.428,-7.241 32.873,-13.942 51.195,-14.53c12.357,-0.4 24.705,-1.284 37.053,-1.994c9.435,-0.544 18.892,-1.924 28.297,-1.594c25.432,0.902 50.825,2.604 75.312,10.537c1.86,0.597 3.902,0.788 5.865,0.845c4.681,0.131 8.439,1.942 11.896,5.103c1.506,1.38 3.966,1.955 6.095,2.369c2.952,0.579 6.201,0.087 8.965,1.062c7.533,2.652 15.614,4.323 21.936,9.461c4.324,-8.233 7.894,-16.924 10.515,-26.024l28.619,16.528c4.28,1.398 8.569,2.782 12.845,4.202c0.501,0.165 0.779,0.918 1.223,1.328c2.325,2.125 4.668,4.223 7.071,6.396c3.597,-5.769 8.813,-6.492 13.62,-2.948c-2.673,1.076 -5.177,2.077 -7.903,3.174c3.932,4.772 5.073,5.208 11.308,5.264c0.4,0 1.223,1.616 1.084,2.33c-0.157,0.788 -0.701,1.502 -1.224,2.225l4.921,2.843c1.341,0.379 2.682,0.762 4.023,1.141l0.008,-29.787c-14.468,-8.49 -30.03,-14.925 -46.283,-20.089c0.213,-0.479 0.426,-0.954 0.64,-1.428c0.866,0.109 1.798,0.052 2.59,0.357c11.356,4.397 22.716,8.782 34.023,13.301c3.057,1.224 6.022,2.817 9.035,4.18l0.004,-25.723c-1.659,-0.693 -3.283,-1.442 -4.977,-2.095c-1.184,-0.453 -1.959,-1.99 -2.912,-3.056c-0.022,-0.009 -0.044,-0.013 -0.061,-0.018c-0.022,-0.008 -0.044,-0.013 -0.061,-0.022c-4.507,2.752 -7.037,-1.489 -10.533,-2.312c0.192,-0.57 0.383,-1.136 0.575,-1.702c3.318,1.337 6.636,2.673 9.958,4.014c0.021,-0.013 0.039,-0.017 0.061,-0.03c-0,-0.004 -0,0.052 -0,0.052l-0,-0.056c0.021,0.021 0.039,0.048 0.061,0.074c2.59,0.648 5.264,1.088 7.754,2.011c0.048,0.018 0.092,0.039 0.139,0.052l0.005,-24.992c-6.105,-2.164 -12.322,-4.136 -18.67,-5.904c0.892,-0.67 1.489,-0.801 2.063,-0.723c5.7,0.754 11.221,2.073 16.611,3.775l0.005,-22.915l-10.032,-3.205c0.187,-0.553 0.37,-1.106 0.557,-1.654c3.157,0.766 6.318,1.528 9.475,2.294l0.034,-104.001c0,0 -176.465,-0.592 -209.36,-0.592l-2134.19,0.488l0,562.009l1332.71,-0c2.377,-2.547 4.602,-5.282 6.196,-8.578c0.17,2.23 -0.767,5.295 -2.308,8.578l22.963,-0c0.871,-0.718 1.751,-1.446 2.617,-2.164c0.005,0.775 -0.113,1.463 -0.213,2.164l23.089,-0c1.141,-2.025 2.252,-4.071 3.397,-6.096c0.518,-0.91 1.506,-2.316 2.129,-2.242c1.141,0.135 2.251,1.106 3.23,1.903c1.668,1.349 3.018,3.265 4.873,4.18c1.267,0.618 2.229,1.397 3.069,2.255l40.153,-0c5.966,-4.637 11.935,-9.261 18.301,-13.267c23.616,-14.852 47.646,-29.037 71.424,-43.636c1.854,-1.137 3.026,-3.396 4.371,-4.964c1.885,-0.627 4.881,-0.744 5.774,-2.173c0.779,-1.258 -0.802,-3.984 -1.411,-6.357c0.949,-0.505 2.238,-1.193 3.945,-2.103c0.361,2.134 0.635,3.793 1.045,6.214c3.644,-2.878 6.853,-5.408 10.976,-8.661c-2.573,-0.474 -3.709,-0.683 -4.85,-0.892c-0.17,-0.505 -0.344,-1.015 -0.514,-1.52c1.872,-0.849 3.714,-1.789 5.63,-2.521c2.355,-0.897 5.024,-1.214 7.123,-2.49c4.924,-2.991 9.466,-6.614 14.386,-9.605c7.885,-4.794 15.944,-9.296 23.943,-13.898c2.612,-1.503 4.794,-3.026 3.949,-6.762c-0.235,-1.058 0.988,-3.14 2.077,-3.684c4.898,-2.442 9.992,-4.502 15.587,-6.945c0.005,-0.03 -0.352,-1.941 0.318,-2.42c3.814,-2.713 7.694,-5.469 11.917,-7.42c2.347,-1.084 5.63,-0.135 5.034,-4.576c-0.096,-0.714 2.342,-1.99 3.775,-2.638c4.075,-1.842 8.529,-3.013 12.309,-5.317c8.851,-5.39 17.411,-11.264 26.059,-16.994c1.38,-0.914 3.492,-1.915 3.731,-3.169c1.337,-7.023 7.432,-8.761 12.418,-11.682c1.045,-0.61 2.682,-0.222 4.045,-0.292c-0.261,1.38 -0.057,3.191 -0.867,4.067c-2.669,2.886 -5.447,5.799 -8.638,8.05c-21.561,15.209 -43.249,30.244 -64.876,45.361c-1.306,0.914 -2.442,2.068 -4.206,3.575c1.994,0.918 3.37,1.558 5.003,2.312c-1.223,3.378 -2.133,6.095 -3.187,8.756c-1.959,4.941 -6.422,3.535 -9.906,3.182c-1.219,-0.126 -2.116,-3.435 -3.666,-6.195c-14.908,9.496 -30.378,19.353 -45.574,29.033c1.163,1.593 2.617,2.725 2.452,3.513c-0.675,3.205 -2.386,5.778 -6.414,6.679c0.649,-2.503 1.193,-4.589 1.973,-7.606c-8.905,6.775 -17.874,12.065 -20.634,23.364c-0.362,-0.283 -0.727,-0.562 -1.089,-0.841c-0.178,-1.51 -0.361,-3.017 -0.601,-5.046c-5.185,3.327 -9.84,6.309 -15.343,9.845c0.074,0.004 0.135,0.021 0.213,0.026c0.03,-0.018 0.056,-0.031 0.091,-0.048c-0.008,0.022 -0.017,0.035 -0.026,0.056c8.068,0.749 11.094,3.867 10.646,9.862c-0.187,2.521 -8.604,8.112 -12.305,7.951c0.301,-2.787 0.601,-5.565 0.902,-8.338c-0.488,-0.157 -0.976,-0.314 -1.463,-0.47c-0.741,2.02 -1.368,4.092 -2.26,6.043c-0.514,1.128 -1.454,2.06 -2.208,3.083c-0.992,-0.967 -2.294,-1.772 -2.913,-2.939c-0.849,-1.598 -1.179,-3.47 -1.737,-5.234c-2.786,1.433 -4.994,3.592 -6.87,3.335c-4.99,-0.688 -7.916,1.825 -11.034,4.894c-2.068,2.042 -4.458,3.928 -7.031,5.251c-5.269,2.713 -11.156,4.385 -16.067,7.589c-9.152,5.966 -18.004,12.392 -26.952,18.662l144.782,-0c0.631,-0.762 1.271,-1.507 1.872,-2.369c2.573,-3.696 6.757,-6.3 10.332,-9.265c3.732,-3.091 7.82,-5.791 11.321,-9.118c3.361,-3.195 6.156,-6.975 9.217,-10.484c2.203,-2.521 5.234,-4.672 6.505,-7.594c3.505,-8.055 6.253,-16.441 9.361,-24.674c0.54,-1.428 1.385,-2.739 2.09,-4.106c1.01,0.993 2.021,1.981 3.397,3.331c0.84,-1.755 1.789,-3.597 2.616,-5.495c2.63,-6.017 5.447,-11.974 7.72,-18.126c1.215,-3.287 1.324,-6.966 2.221,-10.393c0.348,-1.337 1.776,-3.627 2.22,-3.514c3.039,0.767 3.283,-1.476 4.019,-3.222c2.969,-7.032 5.133,-14.542 9.017,-21.021c9.975,-16.654 20.66,-32.882 31.175,-49.21c2.182,-3.387 4.864,-6.452 6.941,-9.174c6.274,2.856 5.124,6.179 1.754,9.718c-0.518,0.54 -0.801,1.298 -1.206,1.947c-8.586,13.724 -17.181,27.439 -25.75,41.176c-1.941,3.113 -3.923,6.209 -5.621,9.457c-1.397,2.678 -2.812,4.663 -6.283,2.155c-6.304,13.929 -11.965,27.657 -18.639,40.872c-7.842,15.518 -14.965,31.785 -25.276,45.578c-9.444,12.645 -20.642,23.669 -32.899,33.531l27.283,-0c1.672,-1.65 3.378,-3.266 5.002,-4.964c3.871,-4.04 7.307,-8.568 10.476,-13.192c3.666,-5.339 6.758,-11.069 10.215,-16.55c2.255,-3.579 5.142,-6.814 7.01,-10.572c4.994,-10.036 8.621,-20.886 14.63,-30.239c5.416,-8.438 2.73,-16.611 3.23,-25.24c-2.725,1.419 -4.985,2.599 -7.345,3.836c0.945,-3.092 1.533,-5.495 2.451,-7.764c0.357,-0.879 1.35,-1.881 2.243,-2.116c8.377,-2.194 14.756,-7.537 21.121,-12.975c0.967,-0.823 2.46,-1.028 4.036,-1.646c-0.518,7.559 -5.438,15.035 -9.896,15.988c-0.009,2.639 -0.022,5.234 -0.035,8.674c1.371,-2.199 2.351,-3.714 3.27,-5.264c14.42,-24.192 28.606,-48.526 43.323,-72.535c10.314,-16.824 21.661,-33.017 31.976,-49.836c8.656,-14.112 8.477,-10.637 1.258,-24.64c-1.001,-1.933 -0.635,-4.572 -1.019,-7.898c7.807,3.161 9.344,8.281 8.595,15.169c8.874,-9.396 10.981,-21.722 18.666,-30.879c1.916,-2.281 3.344,-5.943 5.186,-8.93c12.683,-20.586 25.149,-41.303 37.649,-62.002c4.79,-7.928 9.087,-16.188 14.36,-23.773c3.588,-5.164 8.495,-9.405 12.797,-14.068c11.917,-12.918 23.79,-25.876 35.777,-38.729c2.046,-2.195 3.457,-4.041 1.62,-7.15c-1.058,-1.789 -1.502,-4.001 -1.938,-6.082c-0.226,-1.084 0.166,-2.295 0.275,-3.449c0.539,-0.087 1.075,-0.174 1.615,-0.261c1.393,3.697 2.786,7.393 4.241,11.255c0.548,-0.296 1.101,-0.527 1.576,-0.866c2.73,-1.942 5.451,-3.897 8.159,-5.878c20.948,-15.326 42.378,-29.834 66.387,-40.136c2.551,-1.097 4.511,-3.575 6.496,-5.203c2.499,0.118 5.482,0.257 9.771,0.462c-3.867,2.116 -6.558,3.779 -9.401,5.107c-7.715,3.601 -15.67,6.718 -23.22,10.632c-49.763,25.798 -88.758,63.557 -119.48,109.897c-15.117,22.802 -28.545,46.732 -42.613,70.227c-18.474,30.857 -36.801,61.801 -55.231,92.689c-27.283,45.731 -54.609,91.435 -81.909,137.162c-10.75,18.008 -20.969,36.378 -35.385,51.739l22.218,-0c0.919,-0.967 1.907,-1.885 2.918,-2.743m44.751,-25.463c-2.752,-3.609 -0.466,-8.786 7.968,-19.863c1.759,8.73 -6.179,12.683 -7.968,19.863m21.017,-35.228c-3.91,-5.299 -0.183,-8.195 1.097,-11.53c0.496,0.031 0.993,0.061 1.489,0.087c-0.792,3.496 -1.581,6.993 -2.586,11.443m-3.719,-16.184c2.878,-7.82 7.864,-13.306 12.923,-19.615c1.864,5.651 -5.921,17.015 -12.923,19.615m19.877,-10.637c-0.492,-0.018 -0.984,-0.04 -1.476,-0.057c-2.97,-9.305 -2.678,-12.801 1.711,-15.653c-0.083,5.438 -0.161,10.576 -0.235,15.71m-2.308,-19.089c-0.692,-0.339 -1.38,-0.674 -2.073,-1.01c-0.139,-3.984 3.074,-6.13 5.195,-8.878c0.4,0.201 0.805,0.397 1.206,0.592c-1.446,3.101 -2.887,6.196 -4.328,9.296m36.674,-62.385c-1.99,2.678 -2.782,5.138 -2.203,8.404c0.501,2.843 0.396,5.791 0.562,8.695l-1.267,0.056c-3.579,-9.356 -0.444,-23.821 7.293,-26.773c-1.742,3.967 -2.56,7.163 -4.385,9.618m10.158,-15.792c-0.026,-2.53 -0.056,-5.059 -0.087,-7.589c0.714,-0.03 1.424,-0.061 2.134,-0.091c0.152,2.521 0.309,5.042 0.461,7.563c-0.836,0.039 -1.672,0.078 -2.508,0.117m15.614,-26.055c0.94,5.617 1.885,11.234 2.826,16.851c-4.529,-5.108 -4.829,-10.811 -2.826,-16.851m18.487,-25.109c-0.827,0.409 -0.953,2.338 -1.293,3.596c-0.34,1.271 -0.117,2.978 -0.884,3.801c-3.866,4.128 -4.402,9.139 -4.65,14.403c-0.091,2.012 -1.106,3.971 -1.698,5.957c-0.405,-0.1 -0.806,-0.205 -1.206,-0.309c-0.061,-2.965 -0.126,-5.935 -0.196,-9.257c-1.28,0.779 -2.129,1.302 -3.775,2.308c0.174,-3.693 -2.538,-7.206 2.565,-8.665c0.709,-0.2 1.132,-1.707 1.523,-2.673c1.542,-3.81 2.791,-7.755 4.594,-11.43c1.372,-2.808 3.409,-5.29 5.151,-7.92c0.553,0.257 1.101,0.514 1.65,0.771c-0.187,3.152 3.745,6.688 -1.781,9.418m107.663,-138.843c-0.453,-2.682 -0.901,-5.368 -1.354,-8.055c0.427,-0.065 0.849,-0.13 1.271,-0.196c0.453,2.682 0.902,5.369 1.355,8.051c-0.427,0.07 -0.85,0.135 -1.272,0.2m22.711,-22.767c-1.498,-3.758 -2.996,-7.515 -4.498,-11.277c0.636,-0.248 1.272,-0.492 1.903,-0.74c1.515,3.74 3.026,7.484 4.537,11.224c-0.645,0.266 -1.293,0.532 -1.942,0.793m-236.874,396.86c0.535,-3.497 0.945,-6.17 1.511,-9.875c3.766,4.928 3.261,7.741 -1.511,9.875m12.905,-18.227c-0.91,-0.278 -2.616,-0.587 -2.608,-0.835c0.066,-1.877 0.47,-3.741 0.767,-5.613c0.888,0.161 1.78,0.322 2.669,0.479c-0.275,1.99 -0.553,3.98 -0.828,5.969m9.274,-10.192c-4.593,-4.337 -4.772,-10.703 0.279,-13.968c-0.1,5.098 -0.183,9.257 -0.279,13.968m28.742,-56.338c-1.111,-3.082 -2.225,-6.165 -3.336,-9.243c0.654,-0.209 1.302,-0.418 1.955,-0.627c1.002,3.122 2.008,6.243 3.009,9.361c-0.54,0.17 -1.084,0.34 -1.628,0.509m13.972,-18.23c0.352,-4.402 -2.565,-8.813 -0.427,-13.202c0.536,-0.013 1.071,-0.021 1.607,-0.034c0.265,4.393 0.531,8.79 0.797,13.184c-0.658,0.017 -1.32,0.035 -1.977,0.052m16.436,-50.612c-0.557,-0.405 -1.114,-0.814 -1.667,-1.219c1.994,-2.747 3.992,-5.499 5.991,-8.246c0.305,0.226 0.605,0.452 0.91,0.679c-1.746,2.93 -3.492,5.86 -5.234,8.786m37.611,-46.092c-0.449,-0.091 -0.893,-0.187 -1.346,-0.283c-1.162,-5.612 2.125,-9.653 5.756,-13.593c-1.471,4.628 -2.939,9.252 -4.41,13.876m50.054,-75.969c-0.131,-5.534 -0.239,-10.433 -0.353,-15.331c0.445,-0 0.893,-0.004 1.341,-0.004c2.582,5.063 2.413,11.899 -0.988,15.335m90.887,-102.26c-0.845,-5.029 -1.703,-10.167 -2.556,-15.239c5.09,1.249 6.387,8.795 2.556,15.239m-113.702,181.238c-0.692,-0.031 -1.389,-0.065 -2.081,-0.1c0.069,-3.353 0.139,-6.706 0.209,-10.062c0.822,0.043 1.645,0.082 2.473,0.121c-0.201,3.349 -0.401,6.697 -0.601,10.041m143.884,-169.129c0.501,-6.214 0.906,-11.282 1.315,-16.35l1.263,0.1c2.355,6.41 1.754,12.305 -2.578,16.25m313.414,-96.09c3.832,0.884 7.668,1.768 11.499,2.652c-0.204,0.674 -0.413,1.345 -0.622,2.02c-3.771,-1.032 -7.546,-2.064 -11.316,-3.092c0.148,-0.526 0.291,-1.053 0.439,-1.58m-9.3,-3.936c1.036,0.335 1.45,2.595 2.199,4.106c1.38,-0.066 3.069,-0.144 4.759,-0.227c-4.833,3.026 -8.665,0.662 -12.475,-1.811c-0.048,-0.562 -0.091,-1.128 -0.139,-1.694c1.907,-0.187 3.988,-0.914 5.656,-0.374m-763.184,429.62l-1.799,-0.179c0.514,-3.845 1.024,-7.694 1.537,-11.538c1.755,4.066 3.379,8.09 0.262,11.717m7.249,-5.935c-0.64,0.422 -2.534,-1.045 -4.798,-2.09c1.833,-2.168 2.987,-3.54 4.145,-4.911c1.084,0.953 3.074,1.937 3.039,2.838c-0.061,1.476 -1.149,3.34 -2.386,4.163m18.326,-17.36c1.868,-11.956 12.122,-18.03 22.907,-13.245c-2.826,5.26 -18.936,14.443 -22.907,13.245m75.809,-49.714c-3.788,3.857 -8.029,7.271 -12.096,10.85c0.309,-6.888 2.391,-12.488 8.526,-15.435c1.371,-0.658 3.148,-0.47 4.737,-0.675c-0.353,1.789 -0.1,4.175 -1.167,5.26m28.528,-19.572c-0.196,-1.798 -0.388,-3.596 -0.579,-5.395c0.971,-0.065 1.942,-0.126 2.913,-0.187l0.296,5.369c-0.876,0.074 -1.755,0.143 -2.63,0.213m-132.49,25.95c0.113,0.501 0.231,1.006 0.348,1.507l-13.702,2.987c-0.126,-0.457 -0.257,-0.915 -0.383,-1.372c4.58,-1.04 9.157,-2.081 13.737,-3.122m-167.505,81.757c5.634,0.692 10.498,1.288 15.361,1.885c-5.922,4.402 -10.441,3.709 -15.361,-1.885m56.559,9.814c-0.997,-0.153 -1.99,-0.305 -2.987,-0.458c0.488,-2.643 0.98,-5.285 1.468,-7.928c0.84,0.13 1.68,0.261 2.521,0.396c-0.336,2.665 -0.671,5.325 -1.002,7.99m8.443,-0.497c-0.218,-0.531 -0.436,-1.062 -0.658,-1.589c0.78,-1.607 1.555,-3.218 2.334,-4.824c0.475,-0.066 0.945,-0.135 1.419,-0.201c0.51,1.716 1.559,3.532 1.28,5.108c-0.13,0.736 -2.834,1.019 -4.375,1.506m78.564,-34.911c-0.67,-0.013 -1.341,-0.021 -2.011,-0.034c0.109,-3.014 0.222,-6.027 0.335,-9.04c4.402,3.035 1.642,6.057 1.676,9.074m7.171,-5.094c-1.023,-2.486 -1.863,-4.528 -3.017,-7.323c5.504,1.867 6.179,3.535 3.017,7.323m-0.984,-18.949c4.119,-0.692 6.858,-1.149 9.431,-1.58c0.323,3.949 0.61,7.524 0.993,12.226c-3.566,-3.644 -6.675,-6.819 -10.424,-10.646m170.719,-106.039c-35.656,22.337 -71.616,44.194 -107.232,66.596c-13.998,8.804 -29.764,14.764 -42.117,26.246c-1.593,1.48 -4.01,2.129 -6.109,3.004c-4.058,1.694 -8.22,3.148 -12.234,4.929c-14.469,6.427 -28.903,12.94 -43.336,19.45c-1.694,0.762 -3.292,1.728 -4.934,2.599c0.144,0.401 0.288,0.801 0.431,1.206c7.481,-1.258 14.965,-2.49 22.428,-3.818c0.418,-0.074 0.679,-0.945 1.041,-1.424c2.686,-3.562 5.59,-3.47 8.19,0.257c2.769,3.971 2.26,12.335 -0.954,16.018c-1.724,1.977 -3.452,2.151 -5.542,0.436c-3.24,-2.661 -6.71,-5.047 -9.897,-7.768c-2.856,-2.438 -4.816,-1.302 -7.028,0.945c-3.178,3.226 -6.344,6.553 -9.944,9.261c-7.698,5.795 -7.807,5.643 -14.199,-1.371c-0.244,-0.266 -0.749,-0.292 -1.145,-0.44c-2.003,8.033 -2.025,7.968 -11.09,10.85c-1.306,0.414 -2.591,1.624 -3.37,2.808c-0.997,1.507 -1.467,3.357 -2.168,5.064c-6.322,-4.319 -4.42,-8.847 -3.309,-12.879c-5.247,2.229 -10.376,4.332 -15.44,6.588c-4.506,2.007 -4.972,3.6 -2.982,8.216c0.357,0.836 0.152,1.916 0.204,2.882c-1.101,-0.083 -2.342,0.122 -3.278,-0.318c-1.215,-0.57 -2.064,-2.016 -3.288,-2.421c-1.45,-0.483 -3.135,-0.265 -5.96,-0.418c2.573,3.27 4.062,5.156 5.272,6.697c-1.119,2.125 -2.002,4.001 -3.065,5.769c-0.622,1.036 -1.441,2.591 -2.312,2.691c-1.371,0.157 -2.926,-0.566 -4.28,-1.184c-1.99,-0.906 -3.888,-2.935 -5.799,-2.905c-4.128,0.066 -8.269,0.998 -12.344,1.86c-2.112,0.444 -4.097,1.497 -7.145,2.66c2.995,-5.438 10.85,-4.763 9.914,-12.209c1.459,-0.244 3.035,-0.949 4.393,-0.653c3.836,0.836 6.305,-0.614 8.565,-3.588c0.823,-1.088 2.83,-1.288 4.301,-1.872c1.25,-0.492 2.552,-0.871 3.758,-1.445c3.492,-1.655 6.958,-3.366 10.415,-5.09c2.151,-1.076 4.267,-2.221 6.396,-3.331c0.875,-1.045 2.73,-0.662 3.601,-1.415c4.768,-4.145 10.01,-7.171 16.014,-9.27c2.865,-1.002 4.894,-4.237 7.733,-5.495c14.438,-6.418 29.198,-12.135 43.506,-18.827c18.901,-8.839 39.591,-14.142 56.058,-27.888c0.919,-0.766 2.129,-1.175 3.187,-1.78c13.585,-7.816 27.27,-15.466 40.72,-23.504c11.381,-6.805 22.554,-13.972 33.696,-21.169c5.09,-3.287 9.731,-7.276 14.86,-10.502c6.131,-3.862 12.592,-7.193 18.853,-10.85c2.748,-1.598 5.404,-3.362 8.012,-5.182c2.673,-1.863 4.985,-4.532 7.911,-5.695c4.385,-1.742 8.207,-3.788 11.133,-7.598c1.363,-1.772 3.392,-3.056 5.199,-4.458c4.306,-3.344 8.591,-6.723 13.027,-9.888c1.899,-1.359 4.154,-2.221 6.249,-3.309l1.419,1.558c-1.411,1.785 -2.534,3.941 -4.28,5.29c-7.11,5.526 -14.094,11.317 -21.705,16.084m22.449,-5.185c-0.513,-0.34 -1.027,-0.68 -1.541,-1.019l13.106,-20.634c0.631,0.392 1.258,0.788 1.885,1.184c-4.485,6.823 -8.965,13.646 -13.45,20.469m16.803,-25.371c-0.466,-0.362 -0.936,-0.728 -1.402,-1.089c5.765,-7.485 11.529,-14.965 17.294,-22.449c0.44,0.335 0.875,0.674 1.315,1.014c-5.734,7.506 -11.469,15.013 -17.207,22.524m16.597,11.39c-3.5,-6.588 -4.118,-13.528 -2.464,-20.747c2.356,6.731 4.093,13.532 2.464,20.747m-8.825,-40.14c-3.383,-7.825 12.822,-41.586 20.917,-43.571c-6.588,22.384 -15.57,41.093 -20.917,43.571m33.744,-37.049c-0.701,-0.496 -1.407,-0.993 -2.108,-1.489c5.765,-7.358 11.53,-14.717 17.29,-22.08c0.353,0.236 0.701,0.466 1.054,0.701c-5.517,7.55 -10.245,15.658 -16.236,22.868m80.92,-101.345c-1.885,-1.128 -3.84,-2.168 -5.56,-3.51c-0.196,-0.148 0.788,-2.808 1.489,-2.943c3.749,-0.71 4.284,2.316 5.151,4.824c-0.362,0.54 -0.719,1.085 -1.08,1.629m10.175,-23.299l1.916,-0.392c0.505,3.018 1.01,6.035 1.624,9.688c-3.535,-3.017 -3.949,-6.065 -3.54,-9.296m26.351,-12.6c-3.304,-4.903 -6.021,-9.684 -4.267,-16.006c4.672,4.302 6.732,11.869 4.267,16.006m20.856,-45.239c-3.544,2.643 -7.506,4.833 -10.632,7.894c-9.479,9.283 -18.775,18.757 -27.893,28.397c-18.866,19.95 -36.26,40.924 -48.708,65.764c-6.971,13.898 -15.544,26.999 -23.482,40.41c-0.596,1.006 -1.877,1.606 -2.839,2.395c-0.387,-1.394 -0.252,-2.178 0.148,-2.796c10.855,-16.828 20.39,-34.358 28.289,-52.784c1.053,-2.456 3.222,-4.428 4.846,-6.649c7.38,-10.088 14.39,-20.481 22.275,-30.156c4.141,-5.081 6.065,-11.39 12.827,-15.348c7.041,-4.123 13.284,-11.22 15.64,-18.727c11.138,-8.068 21.47,-15.553 31.806,-23.033c0.423,0.531 0.841,1.063 1.263,1.589c-1.176,1.019 -2.299,2.112 -3.54,3.044m23.347,-14.238c-0.196,-0.379 -0.392,-0.758 -0.592,-1.136c14.908,-10.102 30.317,-19.237 47.946,-24.1c-15.783,8.412 -31.566,16.824 -47.354,25.236m109.208,39.052c-0.061,-0.693 -0.122,-1.385 -0.183,-2.077c14.674,-1.189 29.342,-2.373 44.016,-3.557c0.034,0.457 0.074,0.918 0.113,1.375c-14.647,1.42 -29.299,2.839 -43.946,4.259m173.148,17.468c-2.786,-1.019 -5.664,-1.837 -8.342,-3.087c-15.414,-7.184 -31.38,-12.4 -48.187,-15.391c-15.352,-2.73 -30.6,-5.173 -46.257,-3.118c-3.253,0.427 -6.653,-0.257 -9.984,-0.431c0.004,-0.549 0.009,-1.102 0.009,-1.655c5.969,-0.548 11.93,-1.523 17.904,-1.571c26.834,-0.209 52.518,5.642 77.458,15.226c1.938,0.744 4.159,0.731 6.161,1.35c4.616,1.419 8.852,3.509 11.935,7.306c-0.235,0.457 -0.466,0.914 -0.697,1.371m-87.212,-47.211c0.009,-0.549 0.022,-1.097 0.035,-1.646c9.954,-2.882 28.781,-1.197 33.762,2.909c-5.547,-0.427 -11.251,-1.037 -16.968,-1.254c-5.604,-0.214 -11.221,-0.022 -16.829,-0.009m161.867,-3.544c-5.168,-1.524 -9.239,-2.726 -14.172,-4.18c5.028,-3.797 6.47,-3.292 14.172,4.18m-13.837,15.587c3.779,1.333 7.066,4.05 10.763,6.279c-8.373,0.453 -15.749,-2.203 -22.528,-7.128c4.036,-0.248 8.155,-0.422 11.765,0.849m-33.749,66.47c1.982,-3.253 6.013,-2.683 12.044,1.136c-4.811,5.425 -7.938,-2.094 -12.044,-1.136m0.854,-78.191c2.978,1.533 5.952,3.066 8.921,4.598c-0.274,0.531 -0.553,1.063 -0.827,1.594c-2.987,-1.502 -5.969,-3.009 -8.956,-4.511c0.287,-0.562 0.574,-1.119 0.862,-1.681m4.145,56.381c-3.684,-0.823 -6.91,-1.541 -10.132,-2.26c3.897,-2.116 7.663,-3.161 10.132,2.26m-21.209,-7.014c3.109,0.857 7.28,-1.228 9.64,4.541c-3.992,-1.315 -7.088,-2.338 -10.184,-3.357c0.179,-0.396 0.361,-0.788 0.544,-1.184m-169.617,-76.001c25.367,-2.612 50.791,-3.156 76.279,-2.534c29.294,0.719 57.574,5.73 84.251,18.305c2.038,0.962 4.024,2.038 6.035,3.061c-0.161,0.344 -0.318,0.688 -0.479,1.032c-1.702,-0.466 -3.435,-0.854 -5.107,-1.411c-14.007,-4.702 -27.701,-11.094 -42.087,-13.728c-17.403,-3.188 -35.385,-4.185 -53.128,-4.337c-23.608,-0.196 -47.224,1.332 -70.836,2.138c-4.341,0.152 -8.682,0.409 -13.023,0.618c-0.022,-0.396 -0.048,-0.792 -0.074,-1.189c6.056,-0.657 12.113,-1.332 18.169,-1.955m-29.786,5.948c-7.275,1.633 -14.547,3.266 -21.822,4.898c-0.122,-0.509 -0.248,-1.014 -0.37,-1.523c7.254,-1.733 14.507,-3.466 21.761,-5.199c0.144,0.605 0.288,1.215 0.431,1.824m-35.577,-16.11c-0.139,-0.605 -0.278,-1.21 -0.413,-1.816c10.75,-2.346 21.504,-4.693 32.259,-7.04c0.017,0.457 0.035,0.91 0.052,1.367c-10.633,2.495 -21.265,4.994 -31.898,7.489m-60.7,74.01c0.688,0.048 1.376,0.092 2.064,0.14c-0.113,2.895 -0.226,5.791 -0.344,8.686c-0.675,-0.043 -1.354,-0.083 -2.029,-0.122c0.1,-2.904 0.205,-5.804 0.309,-8.704m-23.803,9.375c3.052,3.187 4.284,7.167 4.523,11.582c-0.483,0.187 -0.962,0.374 -1.441,0.561c-1.615,-3.797 -3.235,-7.598 -4.85,-11.394l1.768,-0.749Zm-12.257,14.716c1.672,4.759 4.602,9.249 3.078,14.648c-1.58,-4.777 -5.495,-9.153 -3.078,-14.648m-16.741,40.519c-2.282,-5.621 -4.154,-10.232 -6.022,-14.847c4.733,2.12 7.341,8.878 6.022,14.847m-16.803,16.681l-1.119,0.453c-1.471,-3.771 -2.939,-7.542 -4.406,-11.312c5.477,2.129 4.689,6.827 5.525,10.859m-60.469,78.138c0.74,4.402 1.433,8.534 2.125,12.666c-0.427,0.096 -0.858,0.187 -1.285,0.278c-3.618,-8.407 -3.709,-9.448 -0.84,-12.944m-8.007,15.809l1.833,0c0.109,5.582 0.218,11.164 0.322,16.746c-0.583,0.004 -1.167,0.004 -1.746,0.009c-0.636,-5.586 -3.004,-11.177 -0.409,-16.755m-14.408,23.138c5.835,7.367 1.659,14.921 2.839,22.458c-3.609,-2.865 -5.469,-16.863 -2.839,-22.458" style="fill:#231f20;fill-rule:nonzero;"/><path d="M2070.86,280.716c-11.634,2.695 -21.857,8.333 -29.729,17.094c-9.07,10.092 -17.634,20.738 -25.494,31.797c-21.718,30.557 -42.312,61.928 -64.566,92.084c-23.455,31.785 -47.255,63.282 -68.254,96.778c-0.997,1.589 -1.798,3.305 -2.743,5.055c1.363,0.436 2.138,0.684 2.913,0.932c-1.873,5.621 -3.658,10.981 -5.648,16.955c-1.854,-2.338 -2.956,-3.719 -4.789,-6.026c-2.508,11.76 -10.023,19.445 -17.421,27.112l116.95,0c50.921,0 97.636,-17.991 134.153,-47.947c-0.478,-1.711 -0.992,-3.391 -1.38,-4.998c1.942,0.684 3.44,1.432 4.437,2.386c8.878,-7.563 17.125,-15.84 24.644,-24.757c-0.814,-9.549 -2.242,-19.058 -4.014,-28.545c-0.998,-5.321 -0.871,-11.29 -9.344,-10.685c2.617,-4.054 5.19,-4.589 7.532,-1.698c1.947,2.394 3.793,5.246 4.498,8.185c1.028,4.263 0.653,8.852 1.467,13.189c1.05,5.569 1.755,11.15 2.212,16.737c8.164,-10.023 15.435,-20.795 21.675,-32.216c-1.189,-7.093 -2.408,-14.36 -3.749,-22.371c5.007,6.792 4.881,13.759 4.711,20.542c6.845,-12.818 12.374,-26.433 16.48,-40.658c-4.916,-13.558 -13.598,-22.841 -28.245,-26.089c-8.185,-1.812 -16.236,-4.228 -24.378,-6.257c-11.686,-2.909 -21.069,1.441 -27.635,11.708c-10.777,16.833 -21.784,33.53 -33.048,50.041c-6.988,10.236 -14.625,20.029 -21.992,30c-1.028,1.389 -2.181,2.682 -3.279,4.014c-0.422,-0.274 -0.849,-0.553 -1.271,-0.832c1.811,-3.021 3.501,-6.126 5.456,-9.052c17.054,-25.567 34.205,-51.073 51.23,-76.662c6.004,-9.021 14.477,-14.734 25.009,-13.075c13.324,2.099 26.516,5.826 39.317,10.18c8.26,2.813 15.753,8.573 18.88,17.103c0.483,1.315 0.905,2.656 1.358,3.979c2.896,-11.024 4.907,-22.406 5.991,-34.057c-4.058,-2.887 -8.538,-5.003 -13.51,-6.414c-4.955,-1.406 -9.701,-3.635 -14.425,-5.76c-2.064,-0.928 -3.828,-2.517 -6.214,-4.132c2.325,-1.468 3.719,-2.343 4.346,-2.739c2.338,2.033 3.818,3.814 5.704,4.842c2.795,1.524 5.782,2.9 8.856,3.666c5.791,1.437 10.846,4.001 15.496,7.193c0.422,-5.447 0.701,-10.933 0.701,-16.485c-0,-3.526 -0.118,-7.023 -0.288,-10.506c-9.03,-3.901 -18.308,-7.341 -27.709,-10.228c-19.854,-6.091 -39.957,-9.561 -60.857,-4.972c-11.303,2.482 -20.62,7.393 -27.208,16.981c-5.377,7.815 -10.48,15.818 -15.932,23.577c-27.091,38.577 -54.421,76.989 -81.238,115.757c-4.21,6.091 -6.256,13.698 -9.174,20.66c-0.439,1.058 -0.104,2.421 -0.265,3.627c-0.148,1.102 -0.475,2.177 -0.723,3.266c-0.392,0.008 -0.779,0.017 -1.167,0.021c-0.353,-2.09 -0.701,-4.184 -1.093,-6.513c-5.573,3.113 -5.46,3.152 -7.084,7.693c-0.91,2.552 -1.89,5.217 -3.483,7.35c-4.907,6.57 -10.097,12.932 -15.235,19.328c-1.546,1.92 -3.279,3.688 -4.924,5.529c-0.353,-0.256 -0.701,-0.509 -1.054,-0.762c1.006,-1.789 1.903,-3.657 3.039,-5.364c9.313,-13.955 18.483,-28.009 28.058,-41.781c20.089,-28.898 40.562,-57.526 60.565,-86.481c12.143,-17.577 26.076,-33.844 36.164,-52.963c6.096,-11.547 15.292,-21.361 26.003,-29.32c0.81,-0.601 1.842,-1.093 2.826,-1.236c10.132,-1.494 20.303,-2.752 30.408,-4.411c3.897,-0.636 7.642,-2.173 11.482,-3.209c0.801,-0.213 1.82,-0.279 2.56,0.031c3.17,1.306 6.17,3.121 9.427,4.088c2.921,0.862 6.348,1.75 9.1,0.993c2.865,-0.788 4.454,-0.906 6.091,1.65c1.825,2.852 4.154,4.528 7.65,2.268c0.471,-0.3 1.842,-0.165 2.008,0.166c2.908,5.712 9.352,4.916 14.411,8.407c0.654,-1.724 1.193,-3.147 1.494,-3.94c2.068,1.864 3.757,3.949 5.617,5.464c-0.593,-8.516 -1.672,-16.889 -3.244,-25.096c-12.505,-4.298 -25.363,-7.476 -38.333,-10.42c-15.579,-3.535 -31.101,-3.039 -46.815,-0.474c-21.749,3.553 -38.725,13.737 -50.79,32.464c-8.613,13.371 -18.096,26.185 -27.252,39.208c-1.202,1.711 -2.752,3.178 -4.141,4.759c-0.366,-0.283 -0.732,-0.566 -1.102,-0.849c0.714,-1.607 1.198,-3.37 2.177,-4.785c10.289,-14.843 20.56,-29.699 31.027,-44.412c6.893,-9.687 15.044,-18.004 26.142,-23.076c2.303,-1.054 3.928,-3.584 5.212,-4.811c1.951,0.348 3.879,1.084 5.734,0.931c3.344,-0.274 6.64,-1.079 9.958,-1.663c9.061,-1.598 18.117,-4.323 27.196,-4.397c5.978,-0.053 12.287,0.056 18.134,0.696c13.707,1.507 27.235,4.624 40.798,7.398c-0.192,-0.815 -0.396,-1.62 -0.601,-2.43c-2.878,-0.727 -5.761,-1.458 -8.639,-2.19c0.127,-0.666 0.257,-1.332 0.388,-2.003c2.556,0.614 5.112,1.232 7.667,1.846c-0.718,-2.73 -1.48,-5.438 -2.307,-8.124c0.91,-1.659 1.724,-3.379 2.582,-5.073c-34.415,-10.528 -69.879,-11.185 -106.148,-2.786m46.567,173.078c-0.592,0.766 -2.456,0.544 -3.331,0.688c-0.187,2.19 -0.409,4.794 -0.631,7.397c-0.492,-0.048 -0.984,-0.091 -1.476,-0.135c-2.008,-6.383 -0.109,-10.632 6.374,-12.605c-0.305,1.829 -0.135,3.619 -0.936,4.655m-27.792,-13.219c5.081,-12.862 14.046,-22.802 24.073,-31.941c7.568,-6.902 13.903,-7.185 22.067,-0.571c-1.563,0.018 -3.183,-0.039 -4.581,-0.627c-6.104,-2.556 -10.928,-0.971 -15.835,3.353c-9.601,8.46 -16.346,18.918 -22.624,29.821c-0.836,1.454 -1.981,2.734 -2.983,4.093c-0.405,-0.257 -0.814,-0.519 -1.219,-0.775c0.366,-1.115 0.671,-2.26 1.102,-3.353m-1.955,48.826c3.174,-5.555 7.032,-10.737 10.82,-15.918c0.661,-0.906 2.307,-1.093 3.496,-1.611c0.222,1.48 1.176,3.483 0.549,4.367c-4.951,7.01 -10.202,13.811 -15.362,20.673l-0.004,0.022c-0.004,-0.004 -0.009,-0.009 -0.013,-0.013c-2.369,1.837 -4.737,3.675 -7.106,5.512c-0.318,-0.374 -0.631,-0.744 -0.945,-1.115c1.559,-2.621 3.118,-5.242 4.825,-8.116c1.663,1.921 2.447,2.822 3.226,3.719c0.004,-0 0.009,-0.004 0.013,-0.009c0.105,-2.534 -0.618,-5.551 0.501,-7.511m-8.025,-29.311c-0.117,1.058 0.113,2.338 -0.405,3.135c-3.875,5.974 -7.894,11.856 -11.873,17.764c-1.925,2.857 -3.858,5.709 -6.366,9.423c-1.31,-6.357 9.679,-24.318 18.644,-30.322m-27.186,-54.469c9.213,-14.944 18.426,-29.891 27.765,-44.76c1.947,-3.092 4.037,-6.292 6.754,-8.643c2.642,-2.29 6.004,-4.459 9.352,-5.107c11.786,-2.282 23.682,-1.685 35.412,0.749c3.561,0.74 6.923,2.46 10.38,3.731c-0.109,0.44 -0.218,0.875 -0.327,1.315c-1.289,-0.087 -2.595,-0.07 -3.866,-0.27c-8.404,-1.315 -16.759,-3.209 -25.21,-3.884c-10.311,-0.818 -20.43,0.732 -27.265,9.636c-4.263,5.542 -7.398,11.938 -11.216,17.838c-7.202,11.138 -14.526,22.193 -21.827,33.265c-0.262,0.397 -0.771,0.636 -1.167,0.945c-0.131,-1.968 0.392,-3.483 1.215,-4.815m-11.521,15.77c0.683,0.453 1.367,0.906 2.05,1.358c-3.487,5.086 -6.97,10.171 -10.454,15.257c-0.553,-0.379 -1.106,-0.758 -1.659,-1.136c3.357,-5.16 6.71,-10.319 10.063,-15.479m-48.013,44.869c0.636,0.043 1.267,0.082 1.899,0.126l-0.723,12.209l-1.746,-0.127c0.192,-4.071 0.379,-8.137 0.57,-12.208m-84.534,31.209c3.018,5.169 3.131,10.359 -0.709,15.431c-0.222,-5.138 -0.445,-10.28 -0.671,-15.417l1.38,-0.014Zm21.684,18.618c-0.762,-0.126 -1.529,-0.252 -2.291,-0.378c0.871,-5.639 1.746,-11.277 2.617,-16.912c0.867,0.101 1.729,0.201 2.591,0.301c-0.971,5.665 -1.947,11.325 -2.917,16.989m31.989,-31.841c-0.566,-0.009 -1.132,-0.022 -1.698,-0.035c-0.109,-3.387 -0.222,-6.779 -0.331,-10.166c0.753,-0.018 1.506,-0.035 2.26,-0.057c-0.079,3.422 -0.157,6.84 -0.231,10.258m45.852,-100.174c-5.237,8.086 -10.271,16.324 -15.888,24.139c-20.085,27.962 -40.418,55.745 -60.556,83.677c-3.261,4.523 -5.995,9.43 -8.943,14.181c-2.669,4.306 -6.531,8.346 -7.65,13.031c-1.724,7.219 -7.215,11.517 -10.868,17.142c-3.675,5.661 -8.778,10.389 -13.188,15.579c-2.09,2.46 -4.028,5.047 -6.039,7.572c-0.427,-0.344 -0.858,-0.688 -1.289,-1.036c0.77,-1.267 1.502,-2.565 2.316,-3.801c6.135,-9.34 12.758,-18.396 18.318,-28.062c8.747,-15.196 20.512,-28.393 28.536,-44.072c2.438,-4.764 6.549,-8.66 9.862,-12.984c8.247,-10.776 16.724,-21.387 24.657,-32.39c12.971,-18 25.567,-36.26 38.373,-54.373c0.822,-1.172 2.081,-2.029 3.139,-3.035c0.305,1.981 -0.061,3.322 -0.78,4.432m134.58,-95.219c5.896,1.659 11.791,3.322 17.686,4.986c-0.126,0.496 -0.252,0.992 -0.374,1.489c-5.978,-1.372 -11.956,-2.739 -17.934,-4.106c0.209,-0.793 0.413,-1.581 0.622,-2.369" style="fill:#231f20;fill-rule:nonzero;"/><path d="M2066.5,255.672c-7.332,1.446 -14.795,4.25 -21.178,8.116c-19.075,11.547 -34.706,26.817 -46.68,45.835c-10.106,16.058 -20.455,31.99 -31.24,47.599c-20.355,29.455 -41.111,58.636 -61.68,87.943c-5.799,8.269 -11.525,16.594 -17.303,24.88c-19.737,28.305 -44.294,53.485 -56.267,86.82c-1.511,1.88 -3.026,3.753 -4.537,5.634l23.385,-0c6,-9.17 12.009,-18.335 18.013,-27.505c15.827,-24.178 31.106,-48.739 47.629,-72.434c15.235,-21.84 31.85,-42.713 47.76,-64.088c6.396,-8.594 12.405,-17.481 18.84,-26.041c2.878,-3.832 5.081,-7.533 3.418,-12.501c-0.192,-0.579 0.17,-1.349 0.326,-2.36c1.089,1.337 1.873,2.304 2.7,3.323c0.588,-0.527 0.997,-0.775 1.258,-1.137c13.206,-18.396 26.382,-36.809 39.596,-55.196c7.533,-10.476 17.02,-18.749 29.02,-23.564c13.437,-5.386 27.496,-8.108 42.051,-8.238c9.732,-0.087 19.463,-0.501 29.19,-0.906c2.621,-0.109 6.087,0.161 7.62,-1.332c2.203,-2.138 3.892,-1.568 6.087,-1.115c3.579,0.74 7.175,1.428 10.776,2.059c8.395,1.481 16.611,3.505 24.696,5.948c1.237,-2.686 2.447,-5.386 3.562,-8.133c4.232,-1.607 8.342,-3.457 12.361,-5.456c-9.453,-3.13 -19.223,-5.625 -29.394,-7.332c-33.535,-5.621 -66.674,-7.393 -100.009,-0.819" style="fill:#231f20;fill-rule:nonzero;"/><path d="M1721.63,458.916c-0.731,-0.397 -1.463,-0.793 -2.194,-1.189c-7.515,14.124 -15.026,28.249 -22.541,42.369c0.322,0.235 0.644,0.475 0.971,0.71c8.56,-13.615 16.793,-27.413 23.764,-41.89" style="fill:#231f20;fill-rule:nonzero;"/><path d="M2154.35,178.624c-14.891,-1.289 -29.742,-2.713 -44.738,-1.045c-14.682,1.632 -29.407,2.995 -44.15,3.884c-13.68,0.827 -27.026,2.751 -39.835,7.846c-19.358,7.693 -36.317,18.657 -51.652,33.038c-16.881,15.827 -32.138,32.66 -44.434,52.253c-28.641,45.635 -56.585,91.74 -86.397,136.6c-31.541,47.455 -60.6,96.417 -90.961,144.586c-1.402,2.229 -2.787,4.467 -4.163,6.714l20.526,-0c2.808,-4.415 6.644,-8.412 9.622,-12.797c3.949,-5.817 7.65,-11.8 11.395,-17.752c3.914,-6.221 7.754,-12.487 11.621,-18.735c3.866,-6.248 7.732,-12.492 11.586,-18.749c3.831,-6.222 7.641,-12.457 10.872,-17.716c-1.328,-1.759 -2.16,-2.865 -2.991,-3.971c0.23,-0.227 0.465,-0.453 0.701,-0.679c1.297,0.631 2.595,1.258 3.714,1.806c2.434,-3.322 4.955,-6.252 6.905,-9.522c3.858,-6.466 8.181,-12.522 12.701,-18.57c9.239,-12.352 17.299,-25.602 25.719,-38.56c21.017,-32.346 41.939,-64.757 62.951,-97.104c8.748,-13.467 17.125,-27.221 26.591,-40.17c14.094,-19.276 31.231,-35.499 51.778,-48.004c9.845,-5.995 19.92,-11.251 31.236,-13.75c26.072,-5.76 52.502,-8.669 79.153,-9.47c8.05,-0.244 16.123,0.305 24.182,0.413c2.034,0.027 4.263,0.231 6.07,-0.483c4.981,-1.968 9.496,-1.415 13.972,1.315c1.528,0.932 3.205,1.868 4.929,2.208c8.177,1.589 16.384,3.061 24.609,4.41c9.988,1.642 19.519,4.616 28.75,8.787c6.592,2.978 13.197,6.239 20.111,8.159c3.775,-4.937 7.254,-10.105 10.354,-15.531c-11.63,-4.78 -23.364,-9.335 -35.111,-13.867c-21.291,-8.212 -42.975,-13.585 -65.616,-15.544m-308.211,242.242c-1.019,0.51 -2.773,-0.457 -4.754,-0.857c4.336,-5.382 8.137,-7.145 11.368,-5.317c3,1.703 4.633,4.424 4.502,8.295c-3.457,-3.527 -6.901,-4.232 -11.116,-2.121m39.992,-46.175c-0.618,-3.687 -1.14,-6.788 -1.659,-9.888c3.14,2.765 4.407,5.774 1.659,9.888m125.032,-161.339c-1.058,-3.997 -2.012,-7.603 -3.279,-12.405c5.743,5.216 6.344,7.789 3.279,12.405" style="fill:#231f20;fill-rule:nonzero;"/><path d="M1458.48,513.482c-5.338,2.895 -9.687,5.255 -14.385,7.802c8.137,1.049 10.989,-0.409 14.385,-7.802" style="fill:#231f20;fill-rule:nonzero;"/><path d="M1527.97,512.81c-0.022,-0 -0.044,-0.005 -0.066,-0.009c-3.217,1.781 -5.469,3.026 -8.403,4.654c5.038,2.839 5.678,2.487 8.469,-4.645" style="fill:#231f20;fill-rule:nonzero;"/><path d="M2195.86,206.622c-8.225,-1.35 -16.428,-2.821 -24.609,-4.415c-1.724,-0.335 -3.396,-1.271 -4.929,-2.208c-4.476,-2.725 -8.987,-3.278 -13.972,-1.31c-1.807,0.714 -4.032,0.505 -6.065,0.479c-8.064,-0.105 -16.136,-0.658 -24.183,-0.414c-26.655,0.806 -53.084,3.714 -79.152,9.47c-11.316,2.5 -21.396,7.759 -31.236,13.75c-20.551,12.51 -37.685,28.729 -51.783,48.008c-9.466,12.949 -17.839,26.704 -26.59,40.171c-21.013,32.346 -41.934,64.754 -62.947,97.1c-8.421,12.962 -16.48,26.207 -25.719,38.564c-4.524,6.048 -8.848,12.104 -12.706,18.57c-1.95,3.265 -4.467,6.2 -6.901,9.518c-1.123,-0.544 -2.421,-1.176 -3.718,-1.803c-0.231,0.227 -0.466,0.449 -0.701,0.675c0.831,1.106 1.667,2.212 2.991,3.975c-3.226,5.26 -7.04,11.491 -10.872,17.713c-3.853,6.257 -7.72,12.505 -11.586,18.753c-3.867,6.248 -7.707,12.513 -11.621,18.731c-3.745,5.952 -7.441,11.939 -11.39,17.751c-2.979,4.389 -6.819,8.386 -9.623,12.797l5.308,-0c0.509,-0.762 1.036,-1.511 1.545,-2.273c19.228,-28.937 36.936,-58.875 55.737,-88.096c9.931,-15.439 21.069,-30.104 31.136,-45.465c9.814,-14.973 18.674,-30.57 28.449,-45.569c17.634,-27.061 35.673,-53.856 53.468,-80.812c4.546,-6.888 8.316,-14.351 13.345,-20.851c8.208,-10.616 17.094,-20.713 25.815,-30.927c13.742,-16.093 32.007,-25.863 50.708,-34.48c8.003,-3.684 17.434,-4.411 26.294,-6.078c36.6,-6.884 73.405,-8.608 110.241,-2.482c18.352,3.056 36.373,7.567 53.433,15.587c5.547,2.608 11.194,4.999 16.854,7.354c1.324,-1.58 2.591,-3.2 3.84,-4.837c-6.914,-1.92 -13.515,-5.181 -20.111,-8.164c-9.226,-4.167 -18.762,-7.14 -28.75,-8.782" style="fill:#58595b;fill-rule:nonzero;"/><path d="M2226.48,193.213c-2.129,-0.413 -4.585,-0.992 -6.096,-2.368c-3.457,-3.161 -7.214,-4.973 -11.891,-5.103c-1.968,-0.057 -4.01,-0.248 -5.865,-0.849c-24.491,-7.933 -49.884,-9.632 -75.316,-10.533c-9.401,-0.331 -18.862,1.049 -28.297,1.589c-12.348,0.714 -24.696,1.598 -37.053,1.995c-18.322,0.587 -34.768,7.293 -51.195,14.533c-13.92,6.131 -25.998,14.604 -36.548,25.476c-4.037,4.163 -8.591,7.824 -12.701,11.921c-5.073,5.056 -10.237,10.076 -14.821,15.558c-21.009,25.131 -36.022,54.299 -54.274,81.29c-11.407,16.859 -22.232,34.123 -32.999,51.4c-6.627,10.637 -12.658,21.648 -19.115,32.773c-1.423,-0.466 -2.647,-0.867 -4.127,-1.35c-0.335,0.962 -0.71,1.755 -0.88,2.586c-0.457,2.208 -0.217,4.807 -1.328,6.583c-5.255,8.421 -10.872,16.616 -16.419,24.988c-1.027,-0.866 -1.82,-1.537 -2.852,-2.407c-0.278,0.766 -0.77,1.423 -0.609,1.789c1.624,3.618 -0.127,6.335 -1.99,9.27c-9.261,14.599 -18.379,29.29 -27.701,44.189c-1.402,-0.54 -2.534,-0.975 -3.069,-1.18c-3.553,17.508 -15.27,30.335 -23.987,44.704c-4.541,7.493 -9.104,14.978 -13.706,22.432l4.38,-0c1.38,-2.243 2.76,-4.485 4.162,-6.714c30.365,-48.169 59.42,-97.131 90.961,-144.586c29.817,-44.86 57.757,-90.965 86.398,-136.6c12.3,-19.593 27.556,-36.421 44.433,-52.248c15.339,-14.386 32.294,-25.35 51.652,-33.043c12.814,-5.095 26.155,-7.019 39.835,-7.846c14.743,-0.889 29.473,-2.251 44.151,-3.884c14.999,-1.668 29.847,-0.244 44.738,1.045c22.641,1.959 44.328,7.332 65.615,15.544c11.748,4.532 23.482,9.087 35.111,13.867c0.806,-1.41 1.546,-2.856 2.304,-4.297c-6.322,-5.142 -14.399,-6.81 -21.936,-9.466c-2.765,-0.975 -6.013,-0.479 -8.965,-1.058" style="fill:#58595b;fill-rule:nonzero;"/><path d="M1830.93,385.494c6.17,-10.041 11.913,-20.351 18.256,-30.274c9.971,-15.592 20.678,-30.722 30.348,-46.493c9.675,-15.774 17.621,-32.659 27.888,-48.007c9.144,-13.668 20.699,-25.689 30.692,-38.817c11.416,-15.004 26.873,-25.136 41.52,-36.387c13.454,-10.332 27.635,-19.123 43.994,-23.716c9.069,-2.552 18.426,-4.35 27.774,-5.561c12.714,-1.645 25.532,-2.577 38.329,-3.513c20.756,-1.524 41.433,-0.54 62.054,2.259c6.483,0.88 13.036,1.315 19.576,1.699c10.067,0.587 19.293,3.779 28.541,7.65c8.338,3.492 17.268,5.586 25.954,8.224c2.173,0.658 4.402,1.215 6.64,1.516c2.552,0.344 5.147,0.348 7.72,0.5c0.161,-0.513 0.322,-1.027 0.488,-1.545c-1.215,-0.897 -2.304,-2.251 -3.662,-2.617c-5.891,-1.572 -11.86,-2.856 -17.799,-4.25c-0.296,-0.069 -0.714,-0.296 -0.876,-0.178c-4.336,3.178 -7.58,-0.518 -11.089,-1.877c-8.804,-3.409 -17.512,-7.062 -26.26,-10.615c-0.278,-0.113 -0.579,-0.348 -0.836,-0.313c-16.371,2.303 -32.39,-1.751 -48.543,-2.926c-21.579,-1.568 -42.983,-1.407 -64.401,1.68c-8.922,1.285 -18.074,1.289 -26.865,3.113c-9.648,1.999 -19.001,5.413 -28.475,8.234c-11.299,3.361 -20.917,9.692 -30.187,16.772c-6.914,5.281 -14.103,10.206 -21.261,15.156c-11.882,8.225 -20.124,19.994 -29.921,30.261c-18.936,19.837 -32.255,43.353 -45.321,67.148c-8.9,16.211 -18.266,32.107 -30.117,46.567c-6.806,8.299 -10.994,18.696 -16.777,27.883c-13.127,20.861 -26.363,41.651 -39.826,62.29c-20.412,31.288 -40.358,62.846 -58.036,95.789c-2.007,3.745 -4.563,7.197 -7.097,11.151c-1.193,-1.11 -1.981,-1.842 -3.082,-2.87c-0.466,0.971 -1.307,1.903 -1.102,2.421c1.655,4.172 -1.01,6.828 -3.043,9.849c-3.754,5.582 -7.468,11.195 -11.186,16.803l4.663,-0c9.867,-14.338 20.286,-28.372 28.563,-43.572c25.084,-46.074 55.366,-88.849 82.762,-133.434" style="fill:#58595b;fill-rule:nonzero;"/><path d="M1686.41,527.161c19.832,-33.435 39.639,-66.883 59.485,-100.309c1.746,-2.939 3.675,-5.773 6.021,-9.439c0.819,5.838 -1.58,9.4 -4.502,12.526c-4.058,4.35 -3.775,8.922 -1.733,13.811c0.536,0.066 0.836,0.157 1.128,0.131c5.086,-0.427 1.681,-7.293 7.149,-8.713c4.132,-1.075 2.604,-6.835 1.873,-10.645c-0.884,-4.615 1.654,-7.315 4.911,-9.505c4.702,-3.161 6.096,-7.589 5.909,-13.742c-2.587,1.655 -4.664,2.979 -6.745,4.307c-0.265,-0.148 -0.531,-0.296 -0.797,-0.449c1.659,-2.895 3.244,-5.83 4.986,-8.677c25.14,-41.133 50.298,-82.253 75.456,-123.377c14.851,-24.278 28.771,-49.136 46.431,-71.616c23.334,-29.699 51.535,-53.572 84.164,-72.512c12.414,-7.206 24.383,-15.296 38.464,-18.806c11.112,-2.769 22.476,-4.541 33.74,-6.7c24.291,-4.655 48.926,-4.537 73.505,-5.186c1.794,-0.048 3.583,-0.392 5.373,-0.597c-0.017,-0.518 -0.039,-1.04 -0.057,-1.558c-11.203,0.339 -22.41,0.535 -33.604,1.062c-11.286,0.527 -22.598,0.971 -33.814,2.208c-11.395,1.258 -22.785,2.973 -33.992,5.355c-10.807,2.295 -21.379,5.695 -31.349,8.416c-3.048,2.443 -5.534,5.112 -8.574,6.767c-26.834,14.603 -51.717,31.911 -73.13,53.772c-20.983,21.418 -38.329,45.648 -53.782,71.333c-25.645,42.626 -51.652,85.03 -77.515,127.526c-15.274,25.092 -30.566,50.176 -45.866,75.256c-1.328,2.181 -2.791,4.284 -4.193,6.422l-1.136,-0.348c0.618,-3.545 1.232,-7.093 1.885,-10.864c0.958,0.079 2.765,0.483 2.883,0.196c1.711,-4.167 5.251,-8.995 4.267,-12.531c-1.577,-5.665 1.732,-9.971 0.814,-14.995c0.422,-0.07 0.849,-0.14 1.271,-0.209c0.749,2.181 1.502,4.358 2.364,6.862c5.064,-0.693 4.611,-4.389 4.672,-7.846c0.057,-3.266 0.257,-6.527 1.437,-9.936c0.906,2.251 1.816,4.497 3.07,7.615c1.767,-4.72 3.666,-8.53 4.572,-12.561c0.901,-4.028 0.814,-8.278 1.193,-12.819c1.898,-0.061 3.953,-0.518 2.238,-4.397c-1.651,-3.728 -0.323,-6.14 5.338,-11.434c-1.011,2.847 -1.829,4.415 -2.077,6.069c-0.24,1.603 -0.366,3.553 0.344,4.873c0.631,1.171 2.481,1.68 3.792,2.486c0.37,-1.463 0.906,-2.909 1.058,-4.394c0.139,-1.367 -0.139,-2.777 0.845,-4.301c0.326,1.049 0.675,2.094 0.971,3.152c0.283,1.01 0.514,2.033 0.788,3.135c2.891,-2.464 3.988,-10.998 1.306,-14.072c-2.046,-2.343 -1.594,-4.202 -0.244,-6.092c1.668,-2.329 3.54,-4.628 5.73,-6.452c5.765,-4.803 6.501,-7.302 3.179,-16.145c-2.491,3.809 -4.363,7.149 -6.693,10.14c-4.968,6.388 -7.079,14.626 -13.218,20.229c-0.223,0.205 -0.427,0.457 -0.562,0.723c-6.971,13.885 -17.752,25.328 -25.006,39.008c-2.468,4.659 -4.201,9.705 -6.082,14.129c-1.328,0.662 -3.379,0.988 -4.071,2.138c-4.258,7.066 -8.225,14.312 -12.253,21.522c-0.361,0.649 -0.866,1.589 -0.653,2.138c1.79,4.554 -0.997,7.506 -3.413,10.698c-1.872,2.469 -3.671,5.142 0.714,6.696c-3.962,6.653 -7.716,12.962 -11.669,19.602c-0.026,-0.017 -0.779,-0.505 -2.055,-1.336c-2.199,4.889 -4.38,9.735 -6.557,14.581c0.108,0.331 0.222,0.662 0.335,0.993c3.479,-2.051 6.958,-4.101 10.437,-6.152c0.37,0.335 0.74,0.675 1.114,1.014c-2.795,4.193 -5.865,8.238 -8.294,12.631c-1.655,2.983 -4.102,7.054 -3.214,9.592c1.794,5.125 -1.193,7.725 -3.304,11.051c-0.549,0.866 -1.267,1.633 -2.682,2.068c1.023,-2.177 2.05,-4.354 3.074,-6.531c-0.214,-0.178 -0.427,-0.357 -0.645,-0.54c-0.662,0.575 -1.493,1.032 -1.955,1.737c-2.948,4.472 -5.839,8.983 -8.677,13.524c-0.641,1.023 -1.555,2.299 -1.407,3.322c0.849,5.918 -3.035,9.714 -6.078,13.777c-1.224,1.632 -3.549,2.399 -5.181,3.788c-1.011,0.857 -1.999,1.776 -2.918,2.743l6.771,-0c8.991,-11.068 17.216,-22.824 24.64,-35.338m33.029,-69.434c0.732,0.396 1.463,0.792 2.195,1.189c-6.971,14.477 -15.204,28.275 -23.769,41.89c-0.322,-0.235 -0.644,-0.475 -0.971,-0.71c7.515,-14.12 15.03,-28.245 22.545,-42.369" style="fill:#58595b;fill-rule:nonzero;"/><path d="M1794.79,396.266c3.596,-5.529 6.313,-11.477 9.984,-18.235c0.91,3.314 1.402,5.116 1.898,6.919l1.223,-0.039c0.606,-3.749 1.098,-7.524 1.847,-11.247c0.492,-2.434 0.844,-5.12 2.124,-7.145c9.967,-15.788 20.525,-31.21 30.161,-47.189c13.267,-22.001 26.015,-44.32 38.729,-66.652c8.948,-15.723 21.47,-28.563 32.878,-42.339c17.616,-21.27 38.555,-38.729 61.14,-54.308c13.623,-9.392 28.606,-16.189 44.381,-21.191c5.634,-1.79 11.268,-3.575 18.104,-5.743c-8.151,-1.925 -14.408,0.457 -20.482,2.817c-18.975,7.371 -37.049,16.489 -53.111,29.168c-10.767,8.499 -22.262,16.288 -31.919,25.911c-17.094,17.033 -34.019,34.44 -47.49,54.608c-7.546,11.29 -13.48,23.643 -20.573,35.251c-13.319,21.809 -27.043,43.366 -40.436,65.132c-13.955,22.672 -27.631,45.518 -41.59,68.189c-8.425,13.685 -17.325,27.078 -25.724,40.78c-16.711,27.27 -33.213,54.661 -49.823,81.992c-1.829,3.004 -3.797,5.921 -5.683,8.851c-4.227,-1.123 -6.513,0.074 -6.835,4.677c-0.488,6.971 -4.285,11.656 -8.569,16.027l4.72,-0c15.165,-21.196 28.715,-43.454 42.312,-65.755c20.556,-33.714 41.216,-67.379 62.734,-100.479" style="fill:#58595b;fill-rule:nonzero;"/><path d="M2168.17,223.819c-0.719,-0.213 -1.625,-0.418 -2.26,-0.165c-7.045,2.804 -13.18,-0.714 -19.554,-2.665c-0.836,-0.252 -1.881,-0.248 -2.717,0.004c-13.276,3.993 -27,1.363 -40.441,2.809c-12.13,1.306 -24.23,2.908 -36.365,4.188c-24.705,2.604 -43.954,16.946 -62.86,30.819c-9.696,7.114 -17.198,17.808 -24.173,27.931c-17.107,24.818 -33.274,50.285 -49.95,75.403c-5.582,8.413 -11.551,16.572 -17.399,24.81c-0.771,1.084 -1.859,1.946 -3.218,3.339c0.014,-3.6 0.027,-6.609 0.035,-9.613l-1.493,-0.153c-0.218,2.047 -0.941,4.189 -0.562,6.118c0.993,5.042 -0.557,9.2 -3.361,13.21c-9.209,13.171 -18.488,26.294 -27.487,39.605c-10.372,15.335 -20.36,30.931 -30.723,46.275c-17.316,25.636 -34.741,51.203 -52.17,76.766l4.419,-0c33.914,-50.133 67.911,-100.209 101.724,-150.407c25.907,-38.459 51.448,-77.167 77.398,-115.591c6.414,-9.497 13.785,-18.353 20.747,-27.475c0.923,-1.21 1.881,-2.525 3.118,-3.348c13.554,-9.021 26.451,-19.406 40.937,-26.555c18.226,-8.991 38.503,-11.682 58.862,-12.078c15.54,-0.301 31.258,-1.877 46.602,-0.192c26.311,2.891 51.778,8.922 75.874,19.215c1.506,-1.259 2.978,-2.552 4.432,-3.871c-5.434,-2.012 -10.907,-3.932 -16.45,-5.621c-14.29,-4.346 -28.632,-8.534 -42.965,-12.758" style="fill:#58595b;fill-rule:nonzero;"/><path d="M1750.08,373.595c18.427,-30.884 36.757,-61.828 55.232,-92.69c14.063,-23.494 27.491,-47.42 42.609,-70.226c30.722,-46.341 69.721,-84.099 119.484,-109.892c7.55,-3.915 15.504,-7.032 23.216,-10.637c2.847,-1.328 5.534,-2.992 9.4,-5.108c-4.284,-0.2 -7.267,-0.344 -9.771,-0.461c-1.985,1.632 -3.94,4.11 -6.491,5.203c-24.009,10.302 -45.439,24.809 -66.391,40.136c-2.704,1.981 -5.425,3.936 -8.155,5.882c-0.479,0.34 -1.032,0.566 -1.577,0.862c-1.454,-3.858 -2.847,-7.559 -4.245,-11.255c-0.535,0.087 -1.075,0.174 -1.611,0.261c-0.113,1.154 -0.5,2.369 -0.274,3.448c0.435,2.082 0.879,4.294 1.938,6.083c1.837,3.109 0.422,4.955 -1.625,7.154c-11.982,12.853 -23.855,25.811 -35.773,38.725c-4.306,4.667 -9.208,8.908 -12.796,14.068c-5.277,7.585 -9.57,15.849 -14.36,23.773c-12.5,20.699 -24.97,41.416 -37.649,62.006c-1.842,2.987 -3.27,6.644 -5.186,8.926c-7.685,9.157 -9.792,21.487 -18.666,30.879c0.749,-6.884 -0.788,-12.004 -8.595,-15.17c0.383,3.327 0.018,5.965 1.015,7.899c7.223,14.002 7.402,10.528 -1.254,24.639c-10.319,16.824 -21.662,33.017 -31.977,49.837c-14.721,24.013 -28.902,48.347 -43.322,72.539c-0.924,1.545 -1.899,3.061 -3.27,5.264c0.013,-3.444 0.021,-6.039 0.034,-8.678c4.455,-0.949 9.375,-8.425 9.893,-15.988c-1.572,0.618 -3.07,0.823 -4.032,1.646c-6.366,5.438 -12.749,10.78 -21.122,12.975c-0.892,0.235 -1.885,1.236 -2.242,2.12c-0.919,2.269 -1.506,4.668 -2.456,7.759c2.365,-1.232 4.62,-2.412 7.346,-3.836c-0.501,8.634 2.19,16.807 -3.231,25.245c-6.004,9.348 -9.636,20.203 -14.63,30.235c-1.868,3.757 -4.75,6.992 -7.005,10.571c-3.457,5.487 -6.553,11.212 -10.215,16.555c-3.17,4.624 -6.605,9.152 -10.476,13.192c-1.624,1.694 -3.331,3.314 -5.003,4.964l5.935,-0c14.416,-15.361 24.64,-33.731 35.39,-51.744c27.295,-45.726 54.621,-91.431 81.908,-137.161" style="fill:#58595b;fill-rule:nonzero;"/><path d="M2138.12,248.893c-12.661,-1.715 -25.301,-0.644 -37.889,-0.261c-17.124,0.527 -34.144,2.865 -50.416,8.774c-2.982,1.079 -5.978,2.464 -8.551,4.301c-17.551,12.514 -33.026,27.026 -44.782,45.383c-13.04,20.359 -26.62,40.375 -39.987,60.53c-0.401,0.61 -0.989,1.097 -2.36,2.586c-0.819,-4.889 -1.489,-8.878 -2.155,-12.866c-0.64,0.026 -1.276,0.052 -1.916,0.078c-0.035,2.217 -0.597,4.581 -0.009,6.619c1.981,6.857 0.139,11.995 -4.219,17.838c-13.262,17.773 -25.493,36.309 -38.268,54.448c-14.669,20.83 -29.503,41.538 -44.246,62.315c-6.818,9.605 -13.55,19.276 -20.42,28.841c-1.324,1.842 -3.105,3.357 -4.311,4.637c-1.624,3.575 -2.847,6.963 -4.615,10.037c-3.928,6.809 -7.907,13.597 -11.939,20.346l5.586,0c1.511,-1.881 3.026,-3.753 4.537,-5.634c11.974,-33.335 36.531,-58.519 56.268,-86.82c5.778,-8.286 11.503,-16.611 17.307,-24.879c20.569,-29.307 41.32,-58.488 61.675,-87.943c10.785,-15.614 21.135,-31.541 31.241,-47.599c11.973,-19.019 27.605,-34.288 46.68,-45.835c6.383,-3.867 13.846,-6.671 21.178,-8.116c33.335,-6.575 66.473,-4.803 100.008,0.818c10.171,1.707 19.942,4.202 29.399,7.333c2.739,-1.359 5.434,-2.791 8.068,-4.324c-13.963,-5.147 -28.48,-8.565 -43.662,-9.845c-7.376,-0.618 -14.904,0.227 -22.202,-0.762" style="fill:#58595b;fill-rule:nonzero;"/><path d="M2144.51,269.405c-2.195,-0.452 -3.884,-1.023 -6.083,1.115c-1.537,1.494 -5.003,1.224 -7.624,1.332c-9.727,0.405 -19.458,0.819 -29.189,0.906c-14.552,0.131 -28.615,2.852 -42.048,8.238c-12.004,4.816 -21.487,13.088 -29.019,23.564c-13.219,18.387 -26.395,36.801 -39.601,55.197c-0.256,0.357 -0.666,0.609 -1.254,1.132c-0.827,-1.015 -1.615,-1.981 -2.703,-3.318c-0.157,1.01 -0.519,1.781 -0.323,2.36c1.664,4.968 -0.54,8.669 -3.422,12.5c-6.435,8.56 -12.444,17.447 -18.84,26.042c-15.91,21.374 -32.525,42.247 -47.755,64.087c-16.528,23.691 -31.807,48.256 -47.634,72.435c-6,9.169 -12.013,18.334 -18.013,27.504l4.124,0c7.397,-7.672 14.912,-15.352 17.42,-27.113c1.833,2.304 2.935,3.688 4.79,6.022c1.99,-5.969 3.775,-11.334 5.647,-16.955c-0.775,-0.243 -1.55,-0.492 -2.913,-0.927c0.945,-1.75 1.746,-3.466 2.743,-5.055c21,-33.496 44.799,-64.998 68.255,-96.778c22.253,-30.156 42.848,-61.531 64.566,-92.088c7.859,-11.06 16.423,-21.701 25.493,-31.794c7.872,-8.76 18.095,-14.399 29.73,-17.094c36.269,-8.399 71.733,-7.741 106.147,2.787c1.019,-2.016 2.034,-4.036 2.978,-6.091c-8.085,-2.443 -16.301,-4.472 -24.696,-5.948c-3.601,-0.631 -7.193,-1.319 -10.776,-2.06" style="fill:#58595b;fill-rule:nonzero;"/><path d="M1719.34,360.923l-1.419,-1.558c-2.095,1.088 -4.346,1.95 -6.248,3.304c-4.433,3.166 -8.717,6.549 -13.028,9.893c-1.802,1.402 -3.836,2.682 -5.194,4.454c-2.93,3.814 -6.753,5.861 -11.138,7.602c-2.926,1.163 -5.238,3.827 -7.911,5.695c-2.608,1.82 -5.264,3.579 -8.007,5.182c-6.266,3.653 -12.727,6.988 -18.858,10.846c-5.124,3.226 -9.766,7.219 -14.86,10.506c-11.142,7.197 -22.315,14.364 -33.696,21.165c-13.45,8.042 -27.135,15.692 -40.719,23.503c-1.058,0.606 -2.269,1.015 -3.183,1.781c-16.472,13.746 -37.162,19.054 -56.063,27.892c-14.308,6.692 -29.068,12.409 -43.506,18.823c-2.834,1.263 -4.868,4.498 -7.728,5.499c-6.009,2.099 -11.251,5.125 -16.019,9.266c-0.866,0.753 -2.726,0.37 -3.601,1.415c-2.129,1.114 -4.245,2.259 -6.392,3.33c-3.457,1.729 -6.927,3.436 -10.419,5.095c-1.206,0.57 -2.508,0.949 -3.753,1.445c-1.476,0.579 -3.479,0.784 -4.306,1.868c-2.26,2.978 -4.729,4.424 -8.565,3.592c-1.358,-0.296 -2.934,0.405 -4.393,0.649c0.936,7.445 -6.919,6.775 -9.914,12.209c3.048,-1.163 5.033,-2.212 7.145,-2.661c4.075,-0.857 8.216,-1.789 12.344,-1.854c1.911,-0.035 3.809,1.998 5.799,2.904c1.354,0.614 2.909,1.341 4.28,1.18c0.871,-0.1 1.69,-1.65 2.312,-2.687c1.063,-1.767 1.951,-3.644 3.066,-5.773c-1.211,-1.537 -2.696,-3.422 -5.269,-6.692c2.826,0.148 4.507,-0.07 5.957,0.413c1.223,0.41 2.076,1.855 3.287,2.421c0.936,0.44 2.177,0.24 3.283,0.322c-0.057,-0.971 0.152,-2.05 -0.209,-2.886c-1.99,-4.616 -1.52,-6.205 2.987,-8.212c5.059,-2.256 10.193,-4.359 15.435,-6.588c-1.106,4.032 -3.009,8.556 3.313,12.875c0.697,-1.707 1.167,-3.557 2.164,-5.064c0.78,-1.18 2.064,-2.39 3.37,-2.804c9.065,-2.882 9.087,-2.817 11.09,-10.85c0.401,0.144 0.906,0.174 1.15,0.44c6.387,7.014 6.496,7.167 14.194,1.371c3.605,-2.712 6.77,-6.034 9.949,-9.265c2.207,-2.243 4.171,-3.383 7.027,-0.945c3.187,2.721 6.653,5.112 9.897,7.768c2.09,1.715 3.819,1.545 5.538,-0.431c3.214,-3.688 3.728,-12.048 0.954,-16.019c-2.599,-3.727 -5.504,-3.823 -8.186,-0.261c-0.361,0.479 -0.622,1.349 -1.04,1.424c-7.467,1.332 -14.948,2.564 -22.428,3.818c-0.148,-0.401 -0.292,-0.805 -0.435,-1.206c1.641,-0.871 3.243,-1.833 4.933,-2.595c14.433,-6.514 28.867,-13.023 43.336,-19.45c4.018,-1.78 8.177,-3.235 12.235,-4.928c2.098,-0.88 4.515,-1.524 6.108,-3.009c12.353,-11.482 28.123,-17.438 42.122,-26.246c35.616,-22.398 71.572,-44.255 107.231,-66.591c7.611,-4.768 14.591,-10.563 21.705,-16.084c1.742,-1.354 2.865,-3.505 4.276,-5.291m-275.238,160.365c4.698,-2.552 9.048,-4.911 14.386,-7.807c-3.396,7.398 -6.248,8.852 -14.386,7.807" style="fill:#58595b;fill-rule:nonzero;"/><path d="M1527.99,512.75c-0.035,0.017 -0.061,0.031 -0.091,0.052c0.022,0 0.043,0.005 0.065,0.009c0.009,-0.022 0.018,-0.039 0.026,-0.061" style="fill:#58595b;fill-rule:nonzero;"/><path d="M1491.69,536.247c2.573,-1.324 4.963,-3.209 7.031,-5.251c3.118,-3.07 6.044,-5.582 11.034,-4.894c1.876,0.257 4.084,-1.903 6.87,-3.335c0.558,1.763 0.888,3.635 1.737,5.233c0.619,1.167 1.921,1.973 2.913,2.939c0.754,-1.023 1.694,-1.955 2.208,-3.083c0.892,-1.95 1.519,-4.023 2.26,-6.043c0.487,0.157 0.975,0.314 1.463,0.47c-0.301,2.774 -0.601,5.552 -0.902,8.338c3.701,0.161 12.118,-5.429 12.305,-7.95c0.448,-5.996 -2.578,-9.113 -10.646,-9.862c-2.791,7.132 -3.431,7.484 -8.468,4.646c2.939,-1.624 5.19,-2.874 8.403,-4.655c-0.078,-0.004 -0.139,-0.022 -0.213,-0.026c5.503,-3.536 10.158,-6.518 15.343,-9.845c0.24,2.029 0.423,3.536 0.601,5.047c0.362,0.278 0.727,0.557 1.089,0.84c2.76,-11.303 11.729,-16.589 20.634,-23.364c-0.78,3.018 -1.324,5.103 -1.973,7.607c4.028,-0.901 5.739,-3.475 6.414,-6.679c0.165,-0.788 -1.289,-1.92 -2.452,-3.514c15.196,-9.679 30.666,-19.537 45.574,-29.033c1.55,2.761 2.447,6.07 3.666,6.196c3.484,0.353 7.947,1.759 9.906,-3.183c1.054,-2.66 1.964,-5.377 3.187,-8.756c-1.633,-0.753 -3.009,-1.393 -5.003,-2.316c1.764,-1.507 2.9,-2.656 4.206,-3.571c21.627,-15.117 43.315,-30.152 64.876,-45.36c3.191,-2.251 5.969,-5.164 8.638,-8.051c0.81,-0.875 0.606,-2.686 0.867,-4.067c-1.363,0.07 -3,-0.322 -4.045,0.292c-4.986,2.917 -11.081,4.659 -12.418,11.682c-0.239,1.254 -2.351,2.255 -3.731,3.17c-8.648,5.73 -17.208,11.603 -26.059,16.994c-3.78,2.303 -8.234,3.474 -12.309,5.316c-1.433,0.649 -3.871,1.925 -3.775,2.639c0.596,4.441 -2.687,3.492 -5.034,4.571c-4.223,1.951 -8.103,4.711 -11.917,7.424c-0.67,0.475 -0.313,2.39 -0.318,2.421c-5.595,2.443 -10.689,4.502 -15.587,6.945c-1.089,0.54 -2.312,2.625 -2.077,3.683c0.845,3.736 -1.337,5.256 -3.949,6.762c-7.999,4.602 -16.058,9.104 -23.943,13.898c-4.92,2.991 -9.462,6.614 -14.386,9.605c-2.099,1.276 -4.768,1.594 -7.123,2.491c-1.916,0.731 -3.758,1.672 -5.63,2.521c0.17,0.505 0.344,1.014 0.514,1.519c1.141,0.209 2.277,0.418 4.85,0.893c-4.123,3.252 -7.332,5.782 -10.976,8.66c-0.41,-2.421 -0.684,-4.08 -1.045,-6.213c-1.707,0.91 -2.996,1.598 -3.945,2.103c0.609,2.373 2.19,5.099 1.411,6.357c-0.893,1.428 -3.889,1.546 -5.774,2.173c-1.345,1.567 -2.517,3.822 -4.371,4.963c-23.778,14.599 -47.808,28.785 -71.424,43.637c-6.366,4.005 -12.335,8.629 -18.301,13.266l6.775,0c8.948,-6.269 17.8,-12.696 26.952,-18.661c4.911,-3.205 10.798,-4.877 16.067,-7.589" style="fill:#58595b;fill-rule:nonzero;"/><path d="M2177.6,330.54c-0.3,0.792 -0.84,2.216 -1.493,3.94c-5.059,-3.492 -11.503,-2.695 -14.412,-8.408c-0.165,-0.335 -1.537,-0.47 -2.007,-0.165c-3.496,2.26 -5.826,0.583 -7.65,-2.269c-1.637,-2.556 -3.227,-2.438 -6.092,-1.65c-2.751,0.758 -6.178,-0.13 -9.1,-0.993c-3.256,-0.966 -6.256,-2.782 -9.426,-4.092c-0.736,-0.305 -1.759,-0.244 -2.56,-0.027c-3.841,1.037 -7.585,2.574 -11.482,3.209c-10.106,1.659 -20.272,2.918 -30.409,4.411c-0.984,0.144 -2.016,0.636 -2.826,1.237c-10.71,7.959 -19.906,17.773 -26.002,29.32c-10.088,19.119 -24.021,35.385 -36.165,52.963c-20.002,28.954 -40.475,57.582 -60.565,86.48c-9.574,13.772 -18.74,27.827 -28.057,41.782c-1.137,1.706 -2.029,3.574 -3.04,5.364c0.353,0.252 0.701,0.505 1.054,0.757c1.646,-1.837 3.379,-3.605 4.925,-5.525c5.137,-6.396 10.327,-12.757 15.234,-19.328c1.594,-2.133 2.574,-4.802 3.484,-7.349c1.624,-4.541 1.511,-4.581 7.084,-7.698c0.392,2.334 0.744,4.424 1.093,6.518c0.387,-0.004 0.775,-0.013 1.167,-0.022c0.248,-1.088 0.574,-2.164 0.722,-3.265c0.161,-1.207 -0.174,-2.569 0.27,-3.627c2.917,-6.963 4.96,-14.569 9.17,-20.66c26.817,-38.769 54.147,-77.181 81.238,-115.758c5.451,-7.758 10.554,-15.761 15.932,-23.577c6.592,-9.587 15.905,-14.499 27.208,-16.981c20.9,-4.589 41.002,-1.119 60.857,4.973c9.4,2.886 18.679,6.326 27.709,10.227c-0.07,-1.445 -0.144,-2.891 -0.244,-4.327c-1.859,-1.516 -3.548,-3.601 -5.617,-5.46" style="fill:#58595b;fill-rule:nonzero;"/><path d="M1632.46,528.968c10.306,-13.793 17.434,-30.06 25.271,-45.578c6.675,-13.214 12.335,-26.943 18.64,-40.876c3.474,2.513 4.885,0.527 6.287,-2.155c1.698,-3.244 3.679,-6.344 5.621,-9.453c8.565,-13.737 17.164,-27.452 25.75,-41.176c0.405,-0.649 0.688,-1.406 1.202,-1.946c3.374,-3.545 4.524,-6.862 -1.755,-9.719c-2.072,2.722 -4.755,5.787 -6.936,9.174c-10.519,16.324 -21.2,32.556 -31.175,49.206c-3.884,6.483 -6.052,13.994 -9.022,21.025c-0.735,1.742 -0.979,3.984 -4.018,3.218c-0.44,-0.109 -1.868,2.177 -2.217,3.518c-0.897,3.427 -1.005,7.106 -2.22,10.389c-2.277,6.157 -5.094,12.109 -7.724,18.13c-0.828,1.894 -1.777,3.736 -2.617,5.491c-1.372,-1.346 -2.382,-2.338 -3.392,-3.327c-0.705,1.367 -1.55,2.678 -2.09,4.106c-3.109,8.229 -5.86,16.615 -9.365,24.675c-1.267,2.921 -4.298,5.068 -6.501,7.593c-3.065,3.505 -5.861,7.289 -9.218,10.48c-3.5,3.327 -7.589,6.026 -11.32,9.122c-3.575,2.965 -7.759,5.569 -10.337,9.266c-0.596,0.857 -1.236,1.602 -1.872,2.368l6.109,0c12.256,-9.862 23.451,-20.886 32.899,-33.531" style="fill:#58595b;fill-rule:nonzero;"/><path d="M2118.98,293.38c-9.079,0.074 -18.131,2.8 -27.196,4.398c-3.318,0.583 -6.614,1.389 -9.958,1.663c-1.854,0.152 -3.783,-0.583 -5.734,-0.932c-1.284,1.228 -2.908,3.762 -5.212,4.812c-11.098,5.072 -19.249,13.388 -26.137,23.076c-10.472,14.712 -20.743,29.568 -31.032,44.411c-0.979,1.42 -1.462,3.183 -2.177,4.786c0.371,0.283 0.736,0.566 1.106,0.849c1.389,-1.581 2.935,-3.048 4.141,-4.759c9.152,-13.023 18.635,-25.833 27.248,-39.209c12.065,-18.726 29.041,-28.911 50.79,-32.464c15.718,-2.56 31.236,-3.06 46.815,0.475c12.975,2.943 25.832,6.126 38.333,10.419c-0.605,-3.169 -1.306,-6.309 -2.051,-9.431c-13.567,-2.769 -27.095,-5.891 -40.797,-7.393c-5.852,-0.644 -12.161,-0.749 -18.139,-0.701" style="fill:#58595b;fill-rule:nonzero;"/><path d="M2156.56,383.638c-12.797,-4.354 -25.994,-8.081 -39.317,-10.18c-10.529,-1.659 -19.006,4.054 -25.01,13.075c-17.02,25.589 -34.171,51.095 -51.23,76.658c-1.955,2.93 -3.64,6.035 -5.451,9.056c0.422,0.279 0.844,0.558 1.271,0.832c1.093,-1.337 2.251,-2.626 3.274,-4.015c7.367,-9.975 15.009,-19.763 21.993,-29.999c11.268,-16.511 22.275,-33.208 33.047,-50.046c6.57,-10.262 15.953,-14.612 27.635,-11.703c8.142,2.024 16.193,4.441 24.379,6.256c14.647,3.249 23.329,12.531 28.249,26.09c0.474,-1.646 0.966,-3.279 1.402,-4.942c-0.457,-1.324 -0.88,-2.665 -1.363,-3.984c-3.122,-8.525 -10.615,-14.286 -18.879,-17.098" style="fill:#58595b;fill-rule:nonzero;"/><path d="M2005.56,382.672c-12.805,18.113 -25.401,36.379 -38.372,54.374c-7.933,11.007 -16.41,21.618 -24.661,32.39c-3.309,4.323 -7.424,8.22 -9.858,12.984c-8.024,15.683 -19.789,28.876 -28.536,44.076c-5.565,9.666 -12.187,18.722 -18.318,28.057c-0.814,1.241 -1.546,2.534 -2.316,3.806c0.431,0.344 0.857,0.692 1.288,1.036c2.008,-2.53 3.95,-5.116 6.04,-7.572c4.41,-5.194 9.513,-9.923 13.188,-15.583c3.649,-5.625 9.144,-9.918 10.868,-17.137c1.119,-4.69 4.981,-8.73 7.65,-13.036c2.943,-4.751 5.682,-9.653 8.943,-14.182c20.133,-27.927 40.471,-55.71 60.556,-83.672c5.617,-7.82 10.65,-16.053 15.888,-24.139c0.719,-1.11 1.084,-2.451 0.78,-4.432c-1.058,1.001 -2.317,1.864 -3.14,3.03" style="fill:#58595b;fill-rule:nonzero;"/><path d="M2324.84,127.019c6.349,1.768 12.566,3.745 18.671,5.904l-0,-2.851c-5.391,-1.699 -10.912,-3.018 -16.611,-3.775c-0.571,-0.074 -1.167,0.056 -2.06,0.722" style="fill:#58595b;fill-rule:nonzero;"/><path d="M2335.55,155.838c0.022,0.005 0.039,0.009 0.061,0.013c-0.022,-0.021 -0.039,-0.047 -0.056,-0.069l-0.005,0.056Z" style="fill:#58595b;fill-rule:nonzero;"/><path d="M2335.61,155.852c0.953,1.067 1.728,2.604 2.917,3.061c1.694,0.649 3.313,1.397 4.977,2.094l-0,-3.087c-0.048,-0.017 -0.092,-0.039 -0.135,-0.057c-2.495,-0.923 -5.164,-1.362 -7.759,-2.011" style="fill:#58595b;fill-rule:nonzero;"/><path d="M1882.89,121.857c-2.356,7.507 -8.599,14.604 -15.64,18.727c-6.762,3.958 -8.682,10.267 -12.823,15.348c-7.889,9.675 -14.895,20.068 -22.279,30.156c-1.624,2.221 -3.793,4.193 -4.846,6.649c-7.899,18.426 -17.434,35.956 -28.289,52.784c-0.396,0.618 -0.535,1.402 -0.148,2.796c0.962,-0.789 2.247,-1.389 2.839,-2.395c7.938,-13.411 16.511,-26.508 23.482,-40.41c12.448,-24.84 29.842,-45.814 48.708,-65.764c9.118,-9.64 18.414,-19.114 27.893,-28.397c3.126,-3.057 7.092,-5.251 10.632,-7.894c1.241,-0.932 2.364,-2.025 3.54,-3.044c-0.422,-0.526 -0.84,-1.058 -1.263,-1.589c-10.332,7.48 -20.668,14.965 -31.806,23.033" style="fill:#58595b;fill-rule:nonzero;"/><path d="M2054.3,74.744c23.612,-0.81 47.233,-2.334 70.836,-2.138c17.747,0.148 35.725,1.15 53.129,4.337c14.385,2.63 28.079,9.026 42.086,13.724c1.676,0.561 3.405,0.949 5.112,1.411c0.156,-0.34 0.317,-0.684 0.474,-1.028c-2.011,-1.023 -3.997,-2.103 -6.035,-3.061c-26.677,-12.574 -54.956,-17.59 -84.246,-18.304c-25.489,-0.623 -50.912,-0.079 -76.279,2.529c-6.061,0.623 -12.117,1.302 -18.174,1.955c0.026,0.396 0.052,0.793 0.078,1.189c4.337,-0.205 8.678,-0.466 13.019,-0.614" style="fill:#58595b;fill-rule:nonzero;"/><path d="M2343.48,221.377l-0,-1.18c-1.341,-0.383 -2.682,-0.767 -4.023,-1.145l4.023,2.325Z" style="fill:#58595b;fill-rule:nonzero;"/><path d="M2074.25,376.226c3.818,-5.9 6.953,-12.296 11.211,-17.838c6.836,-8.904 16.955,-10.454 27.266,-9.636c8.455,0.671 16.811,2.569 25.214,3.884c1.271,0.2 2.573,0.183 3.862,0.27c0.109,-0.44 0.218,-0.875 0.327,-1.315c-3.453,-1.271 -6.815,-2.991 -10.381,-3.731c-11.729,-2.434 -23.62,-3.031 -35.411,-0.749c-3.348,0.648 -6.705,2.817 -9.353,5.107c-2.712,2.351 -4.807,5.547 -6.748,8.643c-9.344,14.865 -18.553,29.816 -27.771,44.76c-0.823,1.332 -1.345,2.847 -1.21,4.815c0.396,-0.309 0.906,-0.548 1.167,-0.945c7.297,-11.072 14.625,-22.127 21.827,-33.265" style="fill:#58595b;fill-rule:nonzero;"/><path d="M2206.89,137.062c-2.003,-0.619 -4.224,-0.606 -6.161,-1.35c-24.94,-9.584 -50.625,-15.431 -77.459,-15.226c-5.974,0.048 -11.934,1.023 -17.904,1.571c0,0.553 -0.004,1.106 -0.009,1.655c3.331,0.174 6.732,0.858 9.984,0.431c15.658,-2.051 30.905,0.392 46.258,3.122c16.807,2.987 32.773,8.207 48.186,15.387c2.678,1.25 5.556,2.068 8.343,3.087c0.23,-0.457 0.461,-0.914 0.692,-1.371c-3.078,-3.797 -7.315,-5.887 -11.93,-7.306" style="fill:#58595b;fill-rule:nonzero;"/><path d="M2300.44,169.249c-0.793,-0.309 -1.724,-0.248 -2.591,-0.361c-0.213,0.478 -0.427,0.953 -0.64,1.428c16.254,5.164 31.815,11.603 46.284,20.094l-0,-3.68c-3.009,-1.362 -5.974,-2.96 -9.035,-4.179c-11.303,-4.52 -22.663,-8.904 -34.018,-13.302" style="fill:#58595b;fill-rule:nonzero;"/><path d="M1740.38,322.987c5.346,-2.473 14.324,-21.183 20.912,-43.567c-8.09,1.981 -24.3,35.747 -20.912,43.567" style="fill:#58595b;fill-rule:nonzero;"/><path d="M2132.6,454.437c-0.705,-2.935 -2.556,-5.787 -4.498,-8.186c-2.342,-2.886 -4.916,-2.355 -7.532,1.698c8.473,-0.605 8.346,5.369 9.343,10.69c1.773,9.483 3.196,18.992 4.015,28.545c0.788,-0.936 1.58,-1.868 2.351,-2.817c-0.457,-5.591 -1.162,-11.173 -2.212,-16.742c-0.814,-4.336 -0.44,-8.921 -1.467,-13.188" style="fill:#58595b;fill-rule:nonzero;"/><path d="M2334.68,211.653c-6.235,-0.056 -7.376,-0.488 -11.308,-5.264c2.726,-1.093 5.229,-2.099 7.903,-3.17c-4.807,-3.544 -10.023,-2.825 -13.62,2.948c-2.403,-2.173 -4.746,-4.276 -7.071,-6.4c-0.444,-0.405 -0.722,-1.159 -1.223,-1.324c-4.276,-1.424 -8.565,-2.804 -12.849,-4.202l38.028,21.971c0.523,-0.727 1.067,-1.437 1.224,-2.225c0.139,-0.714 -0.684,-2.33 -1.084,-2.334" style="fill:#58595b;fill-rule:nonzero;"/><path d="M1398.68,560.24c-1.859,-0.91 -3.205,-2.826 -4.872,-4.18c-0.98,-0.797 -2.09,-1.768 -3.231,-1.903c-0.623,-0.074 -1.611,1.333 -2.129,2.243c-1.15,2.024 -2.26,4.071 -3.396,6.1l4.053,-0c0.109,-0.532 0.231,-1.063 0.558,-1.359c0.901,-0.818 4.254,0.065 7.084,1.359l4.998,-0c-0.836,-0.858 -1.798,-1.638 -3.065,-2.26" style="fill:#58595b;fill-rule:nonzero;"/><path d="M1818.6,313.624c-1.741,2.63 -3.779,5.112 -5.151,7.916c-1.802,3.679 -3.052,7.624 -4.593,11.429c-0.392,0.971 -0.814,2.478 -1.524,2.678c-5.103,1.454 -2.39,4.972 -2.565,8.66c1.646,-1.006 2.495,-1.524 3.775,-2.303c0.07,3.322 0.131,6.287 0.196,9.256c0.401,0.101 0.801,0.205 1.206,0.31c0.593,-1.986 1.607,-3.95 1.699,-5.957c0.248,-5.268 0.783,-10.275 4.65,-14.403c0.766,-0.823 0.54,-2.53 0.884,-3.801c0.339,-1.258 0.465,-3.187 1.288,-3.597c5.53,-2.734 1.598,-6.269 1.785,-9.417c-0.548,-0.257 -1.101,-0.514 -1.65,-0.771" style="fill:#58595b;fill-rule:nonzero;"/><path d="M2092.73,440.611c6.278,-10.903 13.023,-21.361 22.624,-29.821c4.907,-4.324 9.731,-5.913 15.835,-3.353c1.398,0.588 3.018,0.644 4.581,0.627c-8.164,-6.618 -14.495,-6.331 -22.067,0.57c-10.027,9.14 -18.988,19.08 -24.069,31.942c-0.435,1.093 -0.74,2.233 -1.106,3.352c0.405,0.257 0.814,0.514 1.224,0.771c0.997,-1.358 2.142,-2.634 2.978,-4.088" style="fill:#58595b;fill-rule:nonzero;"/><path d="M1568.54,499.552c3.971,1.197 20.081,-7.985 22.907,-13.245c-10.785,-4.785 -21.043,1.289 -22.907,13.245" style="fill:#58595b;fill-rule:nonzero;"/><path d="M2158.69,356.461c-1.89,-1.028 -3.366,-2.813 -5.704,-4.846c-0.627,0.396 -2.02,1.276 -4.345,2.743c2.386,1.611 4.149,3.2 6.213,4.132c4.72,2.125 9.466,4.354 14.425,5.76c4.972,1.411 9.453,3.523 13.511,6.41c0.104,-1.106 0.17,-2.225 0.252,-3.34c-4.65,-3.192 -9.705,-5.756 -15.496,-7.197c-3.074,-0.762 -6.061,-2.138 -8.856,-3.662" style="fill:#58595b;fill-rule:nonzero;"/><path d="M1332.7,562.499l3.888,-0c1.545,-3.288 2.477,-6.349 2.307,-8.578c-1.593,3.296 -3.818,6.031 -6.195,8.578" style="fill:#58595b;fill-rule:nonzero;"/><path d="M2087.17,496.934l0.005,-0.022c5.159,-6.862 10.41,-13.663 15.365,-20.673c0.623,-0.884 -0.331,-2.887 -0.553,-4.367c-1.188,0.518 -2.83,0.705 -3.496,1.615c-3.788,5.177 -7.646,10.359 -10.82,15.914c-1.119,1.96 -0.392,4.977 -0.501,7.511c0,0 0.005,0 0.005,-0.004c-0,0.004 -0.005,0.026 -0.005,0.026" style="fill:#58595b;fill-rule:nonzero;"/><path d="M2067.37,480.988c3.98,-5.909 7.998,-11.787 11.873,-17.761c0.519,-0.796 0.288,-2.081 0.405,-3.135c-8.96,6 -19.954,23.961 -18.644,30.322c2.508,-3.714 4.441,-6.57 6.366,-9.426" style="fill:#58595b;fill-rule:nonzero;"/><path d="M1935.77,89.22c15.784,-8.412 31.567,-16.824 47.355,-25.236c-17.634,4.863 -33.043,13.998 -47.947,24.1c0.201,0.378 0.396,0.757 0.592,1.136" style="fill:#58595b;fill-rule:nonzero;"/><path d="M1632.25,460.687c4.067,-3.583 8.308,-6.992 12.096,-10.85c1.067,-1.084 0.814,-3.47 1.167,-5.26c-1.589,0.2 -3.366,0.018 -4.737,0.675c-6.135,2.948 -8.216,8.547 -8.526,15.435" style="fill:#58595b;fill-rule:nonzero;"/><path d="M2164.71,99.79c-4.981,-4.106 -23.808,-5.791 -33.761,-2.908c-0.013,0.548 -0.026,1.097 -0.035,1.646c5.608,-0.013 11.225,-0.205 16.828,0.008c5.717,0.218 11.421,0.828 16.968,1.254" style="fill:#58595b;fill-rule:nonzero;"/><path d="M1719.97,482.881c7.002,-2.6 14.783,-13.964 12.919,-19.615c-5.055,6.309 -10.041,11.795 -12.919,19.615" style="fill:#58595b;fill-rule:nonzero;"/><path d="M2044.8,126.193c0.061,0.693 0.122,1.385 0.183,2.077c14.647,-1.419 29.299,-2.839 43.946,-4.254c-0.039,-0.461 -0.079,-0.918 -0.113,-1.38c-14.674,1.184 -29.342,2.373 -44.016,3.557" style="fill:#58595b;fill-rule:nonzero;"/><path d="M2333.49,103.952l10.032,3.205l-0,-2.565c-3.161,-0.766 -6.318,-1.524 -9.479,-2.295c-0.183,0.553 -0.37,1.102 -0.553,1.655" style="fill:#58595b;fill-rule:nonzero;"/><path d="M1852.75,414.692c-3.231,-1.828 -7.032,-0.065 -11.368,5.317c1.981,0.4 3.736,1.367 4.754,0.857c4.215,-2.111 7.664,-1.406 11.116,2.121c0.131,-3.871 -1.497,-6.592 -4.502,-8.295" style="fill:#58595b;fill-rule:nonzero;"/><path d="M1780.82,334.441c-2.63,5.595 -0.771,19.593 2.839,22.458c-1.18,-7.537 2.995,-15.096 -2.839,-22.458" style="fill:#58595b;fill-rule:nonzero;"/><path d="M1771.3,407.923l1.267,-0.057c-0.165,-2.904 -0.061,-5.852 -0.562,-8.695c-0.579,-3.265 0.214,-5.725 2.204,-8.403c1.824,-2.456 2.643,-5.652 4.384,-9.618c-7.737,2.956 -10.872,17.416 -7.293,26.773" style="fill:#58595b;fill-rule:nonzero;"/><path d="M2289.71,116.848c-3.696,-2.229 -6.983,-4.946 -10.763,-6.274c-3.609,-1.271 -7.728,-1.097 -11.764,-0.849c6.779,4.924 14.155,7.576 22.527,7.123" style="fill:#58595b;fill-rule:nonzero;"/><path d="M2106.23,514.55c1.036,-0.849 2.038,-1.742 3.061,-2.609c-1.001,-0.953 -2.499,-1.702 -4.441,-2.39c0.387,1.607 0.901,3.287 1.38,4.999" style="fill:#58595b;fill-rule:nonzero;"/><path d="M1772.02,284.451c0.701,0.496 1.406,0.993 2.107,1.489c5.987,-7.21 10.72,-15.318 16.236,-22.868c-0.352,-0.235 -0.701,-0.465 -1.053,-0.701c-5.765,7.363 -11.526,14.722 -17.29,22.08" style="fill:#58595b;fill-rule:nonzero;"/><path d="M1749.2,363.129c1.629,-7.214 -0.113,-14.015 -2.464,-20.747c-1.655,7.219 -1.036,14.16 2.464,20.747" style="fill:#58595b;fill-rule:nonzero;"/><path d="M1702.67,534.293c1.79,-7.18 9.727,-11.133 7.968,-19.863c-8.434,11.072 -10.72,16.249 -7.968,19.863" style="fill:#58595b;fill-rule:nonzero;"/><path d="M1522.63,488.335c3.748,3.827 6.857,7.001 10.423,10.641c-0.383,-4.698 -0.67,-8.272 -0.988,-12.221c-2.578,0.431 -5.312,0.888 -9.435,1.58" style="fill:#58595b;fill-rule:nonzero;"/><path d="M2025.85,53.199c-10.755,2.347 -21.505,4.693 -32.26,7.036c0.14,0.61 0.275,1.215 0.414,1.82c10.633,-2.495 21.27,-4.994 31.902,-7.489c-0.017,-0.457 -0.039,-0.914 -0.056,-1.367" style="fill:#58595b;fill-rule:nonzero;"/><path d="M1891.57,148.697c2.464,-4.136 0.405,-11.704 -4.267,-16.006c-1.755,6.322 0.962,11.103 4.267,16.006" style="fill:#58595b;fill-rule:nonzero;"/><path d="M2154.2,429.775c1.346,8.012 2.56,15.279 3.753,22.371c0.327,-0.601 0.636,-1.219 0.963,-1.824c0.169,-6.788 0.296,-13.755 -4.716,-20.547" style="fill:#58595b;fill-rule:nonzero;"/><path d="M1748.5,328.2c-5.765,7.485 -11.53,14.969 -17.299,22.45c0.47,0.365 0.94,0.727 1.406,1.088c5.735,-7.506 11.473,-15.017 17.207,-22.523c-0.439,-0.34 -0.875,-0.675 -1.314,-1.015" style="fill:#58595b;fill-rule:nonzero;"/><path d="M1714.26,376.093c0.513,0.339 1.027,0.679 1.541,1.014c4.485,-6.818 8.965,-13.641 13.45,-20.468c-0.627,-0.392 -1.254,-0.788 -1.881,-1.185l-13.11,20.639Z" style="fill:#58595b;fill-rule:nonzero;"/><path d="M1388.24,539.855c-4.863,-0.597 -9.727,-1.193 -15.361,-1.886c4.92,5.595 9.435,6.287 15.361,1.886" style="fill:#58595b;fill-rule:nonzero;"/><path d="M1797.38,328.05c-0.108,-5.582 -0.213,-11.164 -0.322,-16.745l-1.833,-0c-2.595,5.573 -0.231,11.168 0.405,16.754c0.584,-0.004 1.167,-0.009 1.75,-0.009" style="fill:#58595b;fill-rule:nonzero;"/><path d="M1927.79,515.707c0.766,0.127 1.528,0.253 2.29,0.379c0.975,-5.66 1.946,-11.325 2.921,-16.985c-0.866,-0.105 -1.728,-0.205 -2.59,-0.305c-0.875,5.639 -1.751,11.273 -2.621,16.911" style="fill:#58595b;fill-rule:nonzero;"/><path d="M1738.37,472.184c0.492,0.017 0.979,0.039 1.471,0.061c0.079,-5.138 0.157,-10.272 0.24,-15.71c-4.389,2.848 -4.681,6.344 -1.711,15.649" style="fill:#58595b;fill-rule:nonzero;"/><path d="M1908.4,497.472l-1.381,0.008c0.222,5.143 0.449,10.28 0.671,15.418c3.836,-5.072 3.723,-10.258 0.71,-15.426" style="fill:#58595b;fill-rule:nonzero;"/><path d="M2168.67,296.856c2.882,0.732 5.76,1.463 8.643,2.19c-0.201,-0.779 -0.379,-1.567 -0.584,-2.347c-2.556,-0.614 -5.112,-1.232 -7.672,-1.846c-0.126,0.671 -0.257,1.337 -0.387,2.003" style="fill:#58595b;fill-rule:nonzero;"/><path d="M2003.35,176.901c-0.409,5.068 -0.818,10.136 -1.319,16.349c4.332,-3.945 4.938,-9.84 2.582,-16.249l-1.263,-0.1Z" style="fill:#58595b;fill-rule:nonzero;"/><path d="M2042.99,422.751c-0.684,-0.453 -1.367,-0.905 -2.051,-1.363c-3.353,5.16 -6.705,10.319 -10.058,15.479c0.553,0.383 1.102,0.762 1.655,1.141c3.483,-5.086 6.97,-10.171 10.454,-15.257" style="fill:#58595b;fill-rule:nonzero;"/><path d="M2007.76,83.062c7.276,-1.633 14.552,-3.266 21.823,-4.898c-0.144,-0.61 -0.288,-1.219 -0.431,-1.825c-7.254,1.733 -14.508,3.466 -21.762,5.199c0.122,0.51 0.248,1.015 0.37,1.524" style="fill:#58595b;fill-rule:nonzero;"/><path d="M2111.99,461.743c0.492,0.044 0.984,0.092 1.476,0.135c0.222,-2.604 0.448,-5.207 0.631,-7.393c0.875,-0.148 2.739,0.074 3.331,-0.688c0.801,-1.036 0.631,-2.83 0.936,-4.659c-6.483,1.977 -8.382,6.222 -6.374,12.605" style="fill:#58595b;fill-rule:nonzero;"/><path d="M1734.15,530.643c0.091,-4.711 0.174,-8.87 0.274,-13.968c-5.051,3.265 -4.868,9.631 -0.274,13.968" style="fill:#58595b;fill-rule:nonzero;"/><path d="M2245.2,177.039c4.106,-0.958 7.232,6.561 12.039,1.136c-6.026,-3.814 -10.058,-4.389 -12.039,-1.136" style="fill:#58595b;fill-rule:nonzero;"/><path d="M1880.61,268.07c0.113,4.898 0.226,9.797 0.352,15.331c3.401,-3.436 3.571,-10.272 0.989,-15.335c-0.449,0.004 -0.893,0.004 -1.341,0.004" style="fill:#58595b;fill-rule:nonzero;"/><path d="M1802.81,365.772c-0.94,-5.617 -1.885,-11.234 -2.826,-16.851c-1.998,6.04 -1.702,11.743 2.826,16.851" style="fill:#58595b;fill-rule:nonzero;"/><path d="M1897.25,160.154c-2.421,5.495 1.494,9.875 3.078,14.647c1.524,-5.399 -1.41,-9.888 -3.078,-14.647" style="fill:#58595b;fill-rule:nonzero;"/><path d="M1969.3,165.904c0.849,5.072 1.711,10.206 2.556,15.239c3.832,-6.444 2.534,-13.994 -2.556,-15.239" style="fill:#58595b;fill-rule:nonzero;"/><path d="M1943.33,317.026c0.539,2.22 1.24,4.424 1.571,6.675c0.353,2.39 0.357,4.824 0.519,7.293c3.857,-3.227 3.352,-10.363 -2.09,-13.968" style="fill:#58595b;fill-rule:nonzero;"/><path d="M2160.19,293.84c-5.896,-1.664 -11.791,-3.327 -17.687,-4.986c-0.204,0.788 -0.413,1.576 -0.618,2.364c5.974,1.372 11.956,2.739 17.93,4.111c0.126,-0.497 0.248,-0.993 0.375,-1.489" style="fill:#58595b;fill-rule:nonzero;"/><path d="M2313.1,97.105c-1.689,0.083 -3.379,0.161 -4.759,0.227c-0.749,-1.511 -1.158,-3.771 -2.194,-4.106c-1.672,-0.54 -3.749,0.183 -5.656,0.374c0.043,0.566 0.091,1.128 0.135,1.694c3.809,2.473 7.645,4.837 12.474,1.811" style="fill:#58595b;fill-rule:nonzero;"/><path d="M2278.61,90.803c4.933,1.454 9.004,2.656 14.172,4.184c-7.707,-7.476 -9.148,-7.977 -14.172,-4.184" style="fill:#58595b;fill-rule:nonzero;"/><path d="M1874.48,185.827c1.872,4.616 3.745,9.227 6.026,14.848c1.315,-5.97 -1.289,-12.727 -6.026,-14.848" style="fill:#58595b;fill-rule:nonzero;"/><path d="M1549.56,509.911c-1.158,1.371 -2.316,2.743 -4.145,4.911c2.264,1.045 4.158,2.512 4.794,2.086c1.241,-0.819 2.329,-2.682 2.386,-4.158c0.039,-0.906 -1.955,-1.89 -3.035,-2.839" style="fill:#58595b;fill-rule:nonzero;"/><path d="M1805.36,308.16c-0.692,-4.132 -1.384,-8.264 -2.125,-12.666c-2.869,3.496 -2.777,4.537 0.841,12.94c0.426,-0.091 0.858,-0.183 1.284,-0.274" style="fill:#58595b;fill-rule:nonzero;"/><path d="M1829.57,359.086c0.448,0.096 0.897,0.192 1.345,0.288c1.472,-4.629 2.939,-9.253 4.411,-13.881c-3.636,3.941 -6.919,7.981 -5.756,13.593" style="fill:#58595b;fill-rule:nonzero;"/><path d="M1914.03,157.019c-0.24,-4.41 -1.472,-8.39 -4.524,-11.577l-1.768,0.744c1.616,3.801 3.235,7.598 4.851,11.399c0.479,-0.191 0.958,-0.379 1.441,-0.566" style="fill:#58595b;fill-rule:nonzero;"/><path d="M1850.97,178.144c-0.697,0.135 -1.681,2.791 -1.489,2.944c1.719,1.341 3.674,2.377 5.56,3.505c0.361,-0.545 0.722,-1.085 1.084,-1.629c-0.871,-2.508 -1.402,-5.529 -5.155,-4.82" style="fill:#58595b;fill-rule:nonzero;"/><path d="M1541.17,522.665l1.798,0.183c3.118,-3.632 1.493,-7.655 -0.261,-11.722c-0.514,3.849 -1.023,7.694 -1.537,11.539" style="fill:#58595b;fill-rule:nonzero;"/><path d="M1776.44,442.871c-2.143,4.389 0.779,8.804 0.426,13.202c0.658,-0.018 1.32,-0.035 1.977,-0.048c-0.266,-4.398 -0.531,-8.791 -0.797,-13.189c-0.535,0.013 -1.071,0.027 -1.606,0.035" style="fill:#58595b;fill-rule:nonzero;"/><path d="M2007.88,200.948c1.271,4.802 2.221,8.408 3.279,12.405c3.069,-4.616 2.464,-7.189 -3.279,-12.405" style="fill:#58595b;fill-rule:nonzero;"/><path d="M1944.35,150.925c1.498,3.762 2.996,7.519 4.494,11.277c0.649,-0.261 1.297,-0.527 1.946,-0.793c-1.511,-3.74 -3.026,-7.484 -4.537,-11.224c-0.636,0.248 -1.267,0.492 -1.903,0.74" style="fill:#58595b;fill-rule:nonzero;"/><path d="M2087.17,496.934l0,-0.022c-0.004,0.005 -0.008,0.009 -0.008,0.009c-0,0.004 0.004,0.009 0.008,0.013" style="fill:#58595b;fill-rule:nonzero;"/><path d="M2079.11,501.316c0.313,0.37 0.631,0.745 0.944,1.115c2.369,-1.837 4.742,-3.675 7.111,-5.508c-0.78,-0.901 -1.563,-1.803 -3.227,-3.723c-1.711,2.878 -3.27,5.495 -4.828,8.116" style="fill:#58595b;fill-rule:nonzero;"/><path d="M2087.18,496.909l-0.004,0.004c-0.005,0.005 -0,0.014 -0,0.022l0.004,-0.026" style="fill:#58595b;fill-rule:nonzero;"/><path d="M1856.07,362.281c0.696,0.035 1.389,0.065 2.085,0.1c0.201,-3.348 0.397,-6.692 0.597,-10.04c-0.823,-0.039 -1.646,-0.083 -2.469,-0.122c-0.074,3.352 -0.144,6.709 -0.213,10.062" style="fill:#58595b;fill-rule:nonzero;"/><path d="M1863.7,217.357c-0.836,-4.032 -0.048,-8.73 -5.526,-10.86c1.468,3.771 2.935,7.537 4.407,11.308l1.119,-0.448Z" style="fill:#58595b;fill-rule:nonzero;"/><path d="M1735.47,452.145c0.693,0.335 1.381,0.671 2.073,1.006c1.441,-3.096 2.882,-6.196 4.328,-9.292c-0.401,-0.196 -0.806,-0.396 -1.206,-0.592c-2.121,2.743 -5.334,4.89 -5.195,8.878" style="fill:#58595b;fill-rule:nonzero;"/><path d="M1723.69,499.063c1.005,-4.45 1.794,-7.946 2.586,-11.442c-0.496,-0.031 -0.993,-0.057 -1.489,-0.088c-1.28,3.336 -5.007,6.227 -1.097,11.53" style="fill:#58595b;fill-rule:nonzero;"/><path d="M1426.45,547.329c0.997,0.152 1.99,0.304 2.983,0.457c0.335,-2.665 0.67,-5.329 1.005,-7.99c-0.84,-0.135 -1.68,-0.265 -2.521,-0.396c-0.487,2.643 -0.979,5.286 -1.467,7.929" style="fill:#58595b;fill-rule:nonzero;"/><path d="M1711.97,559.063c4.772,-2.134 5.277,-4.946 1.511,-9.875c-0.566,3.701 -0.975,6.379 -1.511,9.875" style="fill:#58595b;fill-rule:nonzero;"/><path d="M1514.77,503.302c-0.113,3.013 -0.222,6.026 -0.335,9.039c0.671,0.013 1.345,0.026 2.016,0.039c-0.039,-3.021 2.726,-6.043 -1.681,-9.078" style="fill:#58595b;fill-rule:nonzero;"/><path d="M1439.56,540.875c-0.775,1.607 -1.555,3.218 -2.33,4.824c0.218,0.527 0.436,1.058 0.658,1.59c1.537,-0.488 4.241,-0.771 4.371,-1.507c0.283,-1.576 -0.77,-3.392 -1.276,-5.107c-0.474,0.065 -0.949,0.135 -1.423,0.2" style="fill:#58595b;fill-rule:nonzero;"/><path d="M1994.83,466.385c-0.636,-0.044 -1.267,-0.083 -1.898,-0.126c-0.192,4.071 -0.384,8.142 -0.571,12.208l1.742,0.127l0.727,-12.209Z" style="fill:#58595b;fill-rule:nonzero;"/><path d="M1865.22,161.296c-0.409,3.231 0.004,6.278 3.54,9.296c-0.61,-3.653 -1.119,-6.666 -1.624,-9.684l-1.916,0.388Z" style="fill:#58595b;fill-rule:nonzero;"/><path d="M2240.06,152.971c3.222,0.719 6.448,1.437 10.131,2.26c-2.468,-5.421 -6.235,-4.376 -10.131,-2.26" style="fill:#58595b;fill-rule:nonzero;"/><path d="M1884.47,364.805c0.519,3.1 1.041,6.196 1.659,9.888c2.748,-4.119 1.481,-7.123 -1.659,-9.888" style="fill:#58595b;fill-rule:nonzero;"/><path d="M1791.63,404.245c0.557,0.405 1.11,0.814 1.668,1.219c1.746,-2.93 3.487,-5.856 5.233,-8.786c-0.305,-0.227 -0.605,-0.453 -0.91,-0.68c-1.998,2.748 -3.993,5.5 -5.991,8.247" style="fill:#58595b;fill-rule:nonzero;"/><path d="M1540.74,457.722c-0.117,-0.501 -0.235,-1.006 -0.352,-1.507c-4.577,1.041 -9.153,2.081 -13.733,3.122c0.126,0.457 0.252,0.914 0.383,1.372l13.702,-2.987Z" style="fill:#58595b;fill-rule:nonzero;"/><path d="M1960.38,484.21c0.566,0.014 1.128,0.027 1.694,0.04c0.078,-3.423 0.156,-6.841 0.235,-10.263c-0.753,0.022 -1.507,0.039 -2.264,0.061c0.113,3.388 0.222,6.775 0.335,10.162" style="fill:#58595b;fill-rule:nonzero;"/><path d="M2326.95,99.815c-3.832,-0.884 -7.668,-1.768 -11.499,-2.652c-0.148,0.527 -0.292,1.054 -0.44,1.581c3.771,1.027 7.546,2.059 11.316,3.087c0.209,-0.671 0.418,-1.341 0.623,-2.016" style="fill:#58595b;fill-rule:nonzero;"/><path d="M1520.6,499.958c1.154,2.799 1.994,4.842 3.017,7.323c3.162,-3.788 2.487,-5.451 -3.017,-7.323" style="fill:#58595b;fill-rule:nonzero;"/><path d="M1722.27,539.999c-0.009,0.248 1.698,0.557 2.608,0.836c0.274,-1.99 0.553,-3.98 0.827,-5.969c-0.888,-0.157 -1.781,-0.318 -2.669,-0.479c-0.296,1.872 -0.701,3.735 -0.766,5.612" style="fill:#58595b;fill-rule:nonzero;"/><path d="M2228.99,148.217c-0.183,0.396 -0.366,0.788 -0.545,1.184c3.096,1.019 6.192,2.042 10.184,3.357c-2.364,-5.769 -6.535,-3.684 -9.639,-4.541" style="fill:#58595b;fill-rule:nonzero;"/><path d="M1759.56,465.062c1.11,3.082 2.22,6.161 3.331,9.243c0.544,-0.169 1.088,-0.339 1.632,-0.509c-1.005,-3.118 -2.007,-6.239 -3.013,-9.361c-0.648,0.209 -1.302,0.418 -1.95,0.627" style="fill:#58595b;fill-rule:nonzero;"/><path d="M2335.48,155.813c0.022,0.008 0.039,0.017 0.061,0.026l0.004,-0.057c-0.026,0.018 -0.043,0.018 -0.065,0.031" style="fill:#58595b;fill-rule:nonzero;"/><path d="M2324.95,153.502c3.496,0.823 6.022,5.068 10.528,2.312c-3.318,-1.337 -6.636,-2.678 -9.953,-4.015c-0.192,0.566 -0.384,1.137 -0.575,1.703" style="fill:#58595b;fill-rule:nonzero;"/><path d="M1924.78,176.913c0.449,2.687 0.902,5.373 1.35,8.06c0.422,-0.07 0.849,-0.135 1.271,-0.205c-0.448,-2.682 -0.896,-5.368 -1.349,-8.051c-0.423,0.066 -0.849,0.131 -1.272,0.196" style="fill:#58595b;fill-rule:nonzero;"/><path d="M2254.97,103.447c-2.974,-1.533 -5.948,-3.065 -8.921,-4.598c-0.288,0.562 -0.575,1.119 -0.862,1.681c2.982,1.506 5.969,3.008 8.951,4.515c0.279,-0.531 0.553,-1.067 0.832,-1.598" style="fill:#58595b;fill-rule:nonzero;"/><path d="M1784.29,367.388c0.031,2.529 0.057,5.059 0.087,7.589c0.836,-0.04 1.672,-0.079 2.508,-0.118c-0.156,-2.521 -0.309,-5.042 -0.466,-7.563c-0.709,0.031 -1.419,0.061 -2.129,0.092" style="fill:#58595b;fill-rule:nonzero;"/><path d="M1672.3,424.867c0.191,1.798 0.387,3.601 0.579,5.399c0.875,-0.074 1.755,-0.143 2.634,-0.217l-0.3,-5.369c-0.971,0.061 -1.942,0.126 -2.913,0.187" style="fill:#58595b;fill-rule:nonzero;"/><path d="M1935.37,136.203c-0.688,-0.048 -1.376,-0.091 -2.064,-0.139c-0.104,2.9 -0.209,5.804 -0.313,8.704c0.679,0.039 1.358,0.078 2.033,0.122c0.118,-2.896 0.231,-5.791 0.344,-8.687" style="fill:#58595b;fill-rule:nonzero;"/></g></svg>