<?xml version="1.0" encoding="UTF-8" standalone="no"?>
<!DOCTYPE svg PUBLIC "-//W3C//DTD SVG 1.1//EN" "http://www.w3.org/Graphics/SVG/1.1/DTD/svg11.dtd">
<svg width="100%" height="100%" viewBox="0 0 6279 3946" version="1.1" xmlns="http://www.w3.org/2000/svg" xmlns:xlink="http://www.w3.org/1999/xlink" xml:space="preserve" xmlns:serif="http://www.serif.com/" style="fill-rule:evenodd;clip-rule:evenodd;stroke-linejoin:round;stroke-miterlimit:2;">
    <g id="Layer-1" serif:id="Layer 1" transform="matrix(4.16667,0,0,4.16667,0,0)">
        <g transform="matrix(1,0,0,1,659.308,947.001)">
            <path d="M0,-947.002L-262.503,-741.179L-580.872,-840.738L-466.24,-527.481L-659.308,-255.46L-325.959,-267.678L-126.914,0L-35.524,-320.811L280.562,-427.397L3.695,-613.449L0,-947.002Z" style="fill:rgb(139,160,210);fill-rule:nonzero;"/>
        </g>
        <g transform="matrix(1,0,0,1,987.831,419.405)">
            <path d="M0,123.991C25.842,123.991 46.647,131.028 61.841,144.906C64.539,147.371 67.005,150.002 69.238,152.797L69.238,77.117L103.626,77.117C103.185,76.685 102.747,76.252 102.31,75.815C70.608,44.119 53.933,5.595 52.695,-38.767L-19.273,125.825C-13.121,124.604 -6.691,123.991 0,123.991M-490.278,121.793C-469.338,121.793 -451.136,129.503 -436.178,144.708C-430.987,149.985 -426.674,155.687 -423.263,161.77C-419.782,155.214 -415.105,149.188 -409.261,143.741C-395.104,130.548 -377.577,123.857 -357.165,123.857C-333.869,123.857 -314.857,131.648 -300.658,147.012C-296.708,151.275 -293.432,156.132 -290.847,161.547C-287.343,155.364 -282.894,149.611 -277.522,144.329C-270.851,137.77 -263.393,132.57 -255.354,128.871C-245.143,124.175 -233.764,121.793 -221.533,121.793C-200.593,121.793 -182.391,129.503 -167.433,144.708C-162.28,149.947 -157.993,155.599 -154.595,161.625C-151.38,154.723 -147.023,148.563 -141.546,143.192C-128.463,130.362 -110.941,123.857 -89.469,123.857C-84.708,123.857 -78.806,124.365 -71.426,125.409L-65.331,126.27L-65.331,151.516C-63.613,149.673 -61.786,147.881 -59.852,146.144C-48.521,135.975 -35.39,129.274 -20.648,126.109L-137.935,-143.941L-137.935,-14.885C-137.935,1.359 -134.853,6.964 -133.016,8.859C-131.212,10.722 -125.928,13.845 -110.784,13.845L-98.936,13.845L-98.936,117.788L-130.51,117.788C-165.922,117.788 -194.039,107.176 -214.08,86.246C-233.594,65.873 -243.704,37.638 -244.147,2.293L-433.225,2.293L-435.272,0.365C-447.446,-11.103 -454.428,-27.443 -454.428,-44.463C-454.428,-62.506 -446.732,-79.487 -433.314,-91.051L-431.32,-92.77L-355.778,-92.77C-367.106,-103.167 -380.2,-108.223 -395.802,-108.223C-411.267,-108.223 -424.315,-103.139 -435.692,-92.681L-436.063,-92.341C-437.101,-91.389 -438.082,-90.489 -438.977,-89.554C-439.921,-88.566 -440.827,-87.487 -441.785,-86.344L-442.033,-86.049C-444.534,-83.07 -446.764,-79.887 -448.659,-76.592C-454.169,-67.012 -456.963,-56.09 -456.963,-44.128C-456.963,-26.218 -451.047,-11.364 -438.876,1.283C-426.782,13.855 -412.693,19.966 -395.802,19.966C-384.231,19.966 -373.75,17.079 -364.65,11.386L-359.475,8.148L-293.736,84.991L-294.311,92.389L-296.952,94.312C-325.374,115.004 -358.632,125.495 -395.802,125.495C-421.431,125.495 -445.398,120.394 -467.037,110.336C-484.649,102.15 -501.044,90.536 -515.767,75.815C-547.065,44.523 -563.718,6.575 -565.329,-37.074L-635.78,124.05C-633.622,123.922 -631.431,123.857 -629.212,123.857C-616.707,123.857 -604.558,126.154 -593.103,130.684C-581.402,135.314 -572.015,141.689 -565.202,149.632C-562.641,152.595 -560.356,155.878 -558.36,159.457C-555.062,154.061 -551.021,149.004 -546.267,144.329C-539.596,137.77 -532.138,132.57 -524.098,128.871C-513.888,124.175 -502.509,121.793 -490.278,121.793M-630.26,185.848C-633.879,185.848 -636.843,187.027 -639.588,189.559C-642.973,192.682 -643.365,195.425 -643.365,197.215C-643.365,200.325 -642.323,202.637 -639.987,204.713C-637.467,206.954 -634.336,208.042 -630.409,208.042C-627.635,208.042 -625.038,207.464 -622.467,206.274L-618.351,204.368L-618.351,199.909C-618.351,188.2 -622.908,185.848 -630.26,185.848M0.748,189.619C-3.358,189.619 -6.798,190.918 -9.766,193.591C-12.555,196.101 -13.853,198.794 -13.853,202.063C-13.853,205.645 -12.724,208.357 -10.299,210.596C-7.744,212.957 -4.474,214.103 -0.299,214.103C3.396,214.103 6.718,213.252 9.859,211.5L14.899,208.687L14.899,205.835C14.899,200.52 13.619,196.528 10.985,193.63C8.495,190.894 5.241,189.619 0.748,189.619M-637.617,337.516L-672.046,331.382L-672.046,268.252L-661.825,273.294C-655.561,276.384 -649.168,277.95 -642.823,277.95C-634.754,277.95 -628.829,275.77 -624.709,271.286C-623.562,270.036 -622.569,268.607 -621.73,267.003C-628.929,269.015 -635.955,270.033 -642.674,270.033C-662.565,270.033 -679.661,263.14 -693.486,249.546C-707.347,235.921 -714.375,219.039 -714.375,199.37C-714.375,178.111 -705.964,159.958 -689.375,145.415C-675.298,133.072 -658.295,125.979 -638.732,124.266L-782.092,-205.817L-659.757,-205.817L-636.052,-140.586L-609.882,-205.817L-491.545,-205.817L-505.862,-173.074C-493.831,-183.352 -480.807,-191.741 -467.011,-198.089C-444.745,-208.331 -419.871,-213.525 -393.081,-213.525C-347.484,-213.525 -307.833,-196.72 -275.228,-163.576C-262.378,-150.512 -252,-136.286 -244.163,-121.024L-244.163,-205.817L-42.474,-205.817L-18.769,-140.586L7.401,-205.817L125.738,-205.817L110.939,-171.973C123.325,-182.755 136.782,-191.516 151.067,-198.088C173.333,-208.331 198.207,-213.525 224.998,-213.525C270.595,-213.525 310.246,-196.72 342.851,-163.576C355.327,-150.891 365.478,-137.096 373.232,-122.318L373.232,-205.817L472.206,-205.817L472.206,-119.222L510.297,-119.222L510.297,-15.507L472.374,-15.507C473.135,-0.301 476.33,6.765 479.065,10.045C483.297,15.125 491.953,17.699 504.798,17.699L511.885,17.699L511.885,120.725L505.037,120.958C500.451,121.113 497.183,121.188 495.048,121.188C474.781,121.188 455.403,116.416 437.451,107.003C419.469,97.573 404.83,84.59 393.939,68.413C382.366,51.06 375.603,28.871 373.761,2.293L184.853,2.293L182.807,0.365C170.633,-11.102 163.65,-27.441 163.65,-44.462C163.65,-62.506 171.347,-79.487 184.765,-91.051L186.759,-92.77L262.3,-92.77C250.972,-103.168 237.879,-108.222 222.277,-108.222C206.812,-108.222 193.764,-103.139 182.385,-92.681L181.983,-92.312C180.957,-91.369 179.988,-90.48 179.103,-89.555C178.16,-88.569 177.257,-87.493 176.302,-86.354L176.045,-86.048C173.545,-83.07 171.315,-79.888 169.419,-76.592C163.909,-67.012 161.116,-56.089 161.116,-44.128C161.116,-26.218 167.032,-11.364 179.202,1.283C191.296,13.855 205.385,19.966 222.277,19.966C233.848,19.966 244.329,17.079 253.429,11.386L258.603,8.148L324.343,84.992L323.767,92.389L321.126,94.312C292.704,115.004 259.446,125.495 222.277,125.495C196.648,125.495 172.682,120.395 151.042,110.338C147.095,108.502 143.187,106.484 139.352,104.299L139.352,128.571L164.479,128.571L164.479,195.95L139.707,195.95C140.413,202.268 142.017,204.997 143.074,206.139C144.384,207.555 148.121,209.929 158.439,209.929L165.526,209.929L165.526,276.826L158.654,277.034C155.554,277.129 153.441,277.173 152.008,277.173C138.345,277.173 125.274,274.27 113.158,268.546C101.739,263.154 92.281,255.834 85.014,246.768L85.014,275.152L20.398,275.152L20.398,275.881L14.407,276.818C9.478,277.589 4.882,277.98 0.748,277.98C-23.37,277.98 -43.825,270.671 -60.048,256.257C-76.514,241.627 -84.863,223.031 -84.863,200.986C-84.863,197.423 -84.621,193.899 -84.141,190.447C-87.183,190.605 -91.207,192.001 -91.207,204.353L-91.207,275.152L-161.32,275.152L-161.32,223.646L-200.4,223.646L-174.214,254.256L-174.736,260.968L-177.377,262.89C-190.435,272.396 -205.689,277.217 -222.716,277.217C-234.447,277.217 -245.436,274.874 -255.378,270.253C-263.463,266.494 -270.977,261.175 -277.711,254.442C-279.843,252.31 -281.83,250.105 -283.669,247.83L-283.669,275.152L-353.782,275.152L-353.782,192.231C-353.782,187.734 -354.962,187.734 -357.314,187.734C-359.567,187.734 -360.698,187.734 -360.698,192.231L-360.698,275.152L-430.81,275.152L-430.81,223.646L-469.146,223.646L-442.963,254.252L-443.476,260.964L-446.122,262.89C-459.18,272.396 -474.434,277.217 -491.461,277.217C-503.192,277.217 -514.181,274.874 -524.123,270.253C-532.207,266.494 -539.721,261.176 -546.456,254.442C-547.074,253.824 -547.681,253.199 -548.275,252.568C-548.89,277.071 -557.2,297.403 -573,313.04C-589.41,329.281 -610.939,337.516 -636.99,337.516L-637.617,337.516Z" style="fill:rgb(237,26,78);fill-rule:nonzero;"/>
        </g>
        <g transform="matrix(1,0,0,1,534.073,312.664)">
            <path d="M0,337.473L15.86,337.473L15.86,356.012L14.275,354.16L0,337.473ZM268.745,337.473L285.351,337.473L285.351,356.884L283.021,354.16L268.745,337.473ZM453.458,313.758C450.435,313.758 449.138,312.937 448.269,312.133C447.543,311.463 446.991,310.795 446.991,308.804C446.991,308.113 446.991,307.166 448.734,305.597C450.408,304.09 452.134,303.447 454.505,303.447C457.959,303.447 458.963,304.55 459.503,305.143C459.966,305.652 461.303,307.123 461.536,311.286L460.165,312.051C458.078,313.216 455.947,313.758 453.458,313.758M-176.652,307.697C-179.417,307.697 -180.663,306.921 -181.516,306.161C-182.334,305.435 -182.521,305.024 -182.521,303.955C-182.521,303.556 -182.521,302.889 -181.024,301.507C-179.596,300.189 -178.327,299.675 -176.502,299.675C-173.687,299.675 -172.8,300.261 -172.792,300.267C-172.791,300.271 -171.69,301.641 -171.68,306.58L-171.687,306.583C-173.306,307.332 -174.93,307.697 -176.652,307.697M30.426,255.492C28.071,252.372 25.472,249.367 22.633,246.48C16.084,239.823 8.964,234.482 1.307,230.47C15.835,235.285 31.192,238.15 47.22,239.03C44.614,240.944 42.094,243.034 39.665,245.298C36.216,248.512 33.134,251.913 30.426,255.492M600.195,228.226L600.195,222.742C600.733,222.999 601.272,223.253 601.812,223.504C605.495,225.216 609.24,226.789 613.047,228.226L600.195,228.226ZM656.903,116.121L695.522,116.121C689.576,118.469 683.134,119.62 676.034,119.62C669.158,119.62 662.804,118.464 656.903,116.121M38.824,116.121L77.443,116.121C71.498,118.468 65.056,119.62 57.956,119.62C51.079,119.62 44.725,118.464 38.824,116.121M104.663,116.121L202.737,116.121C204.398,150.081 215.083,177.553 234.561,197.889C255.987,220.268 285.827,231.616 323.248,231.616L326.03,231.616C319.087,234.991 312.817,239.413 307.25,244.873C304.071,247.991 301.233,251.343 298.739,254.921C296.5,252.007 294.044,249.192 291.377,246.48C275.037,229.869 255.135,221.447 232.225,221.447C218.964,221.447 206.588,224.047 195.442,229.174C186.657,233.216 178.523,238.882 171.268,246.016C168.35,248.885 165.681,251.883 163.264,255.005C161.73,252.877 160.072,250.851 158.29,248.928C148.696,238.547 137.137,231.314 123.752,227.287C136.893,222.109 149.321,215.267 160.976,206.783L166.261,202.935L166.765,196.417L166.859,195.202L167.312,189.354L163.499,184.896L104.663,116.121ZM-171.143,223.597L-170.543,222.225L-115.713,96.827C-109.329,131.148 -93.028,161.565 -67.021,187.568C-51.709,202.875 -34.633,214.966 -16.266,223.504C-15.734,223.751 -15.202,223.995 -14.667,224.237C-21.604,222.38 -28.896,221.447 -36.521,221.447C-49.781,221.447 -62.157,224.047 -73.302,229.174C-82.088,233.216 -90.222,238.882 -97.478,246.016C-99.985,248.482 -102.312,251.047 -104.452,253.706C-104.99,253.031 -105.54,252.368 -106.102,251.717C-113.667,242.912 -123.974,235.887 -136.736,230.836C-147.705,226.498 -159.26,224.07 -171.143,223.597M446.003,223.909L446.74,222.225L502.132,95.543C507.514,125.734 520.53,152.923 541.035,176.771L515.91,176.771L515.91,242.625C499.881,230.026 479.007,223.646 453.757,223.646C451.136,223.646 448.55,223.734 446.003,223.909M664.051,6.884C667.857,6.029 671.844,5.605 676.034,5.605C680.279,5.605 684.312,6.029 688.153,6.884L664.051,6.884ZM45.973,6.884C49.779,6.029 53.766,5.605 57.956,5.605C62.2,5.605 66.234,6.029 70.075,6.884L45.973,6.884ZM342.974,113.499C329.038,113.499 325.851,110.687 325.82,110.659C325.821,110.657 322.91,107.093 322.91,91.856L322.91,-3.094L420.754,222.193L423.314,228.086C413.27,231.214 403.985,235.987 395.512,242.384L395.512,226.856L383.324,225.132C375.609,224.041 369.382,223.511 364.289,223.511C363.49,223.511 362.697,223.52 361.908,223.536L361.908,113.499L342.974,113.499ZM60.677,-113.871C32.856,-113.871 6.986,-108.459 -16.215,-97.786C-22.67,-94.816 -28.961,-91.42 -35.067,-87.611L-26.955,-106.163L-160.917,-106.163L-164.487,-97.267L-181.968,-53.694L-197.643,-96.831L-201.035,-106.163L-339.138,-106.163L-330.531,-86.344L-196.529,222.193L-195.213,225.222C-212.302,228.302 -227.407,235.533 -240.29,246.827C-258.48,262.775 -267.704,282.721 -267.704,306.111C-267.704,327.751 -259.963,346.334 -244.696,361.341C-238.786,367.153 -232.335,371.85 -225.376,375.42L-225.376,444.058L-213.689,446.14L-185.719,451.124L-184.486,451.344L-183.233,451.344C-155.249,451.344 -132.042,442.419 -114.257,424.817C-100.374,411.077 -91.821,394.066 -88.717,374.084C-83.869,377.796 -78.73,380.919 -73.354,383.419C-62.469,388.479 -50.475,391.043 -37.704,391.043C-19.146,391.043 -2.489,385.767 11.806,375.36L15.86,372.409L15.86,388.979L177.175,388.979L177.175,371.805C182.846,376.532 188.947,380.423 195.391,383.419C206.276,388.479 218.27,391.043 231.042,391.043C249.598,391.043 266.256,385.767 280.551,375.36L285.351,371.867L285.351,388.979L369.636,388.979L369.636,343.191C374.155,352.458 380.619,360.846 389.002,368.295C406.561,383.897 428.6,391.808 454.505,391.808C459.003,391.808 463.968,391.388 469.26,390.56L479.361,388.979L545.857,388.979L545.857,370.523C551.243,374.832 557.266,378.567 563.89,381.696C576.959,387.869 591.048,390.999 605.765,390.999C607.289,390.999 609.469,390.955 612.628,390.859L626.37,390.44L626.37,309.582L625.323,309.582L625.323,232.316C641.342,236.973 658.313,239.323 676.034,239.323C714.733,239.323 749.394,228.374 779.054,206.783L784.339,202.935L784.843,196.417L784.938,195.202L785.39,189.354L781.577,184.896L722.741,116.121L821.013,116.121C823.558,141.056 830.515,162.163 841.785,179.061L841.801,179.086L841.819,179.112C853.372,196.275 868.882,210.038 887.917,220.02C906.894,229.97 927.38,235.015 948.805,235.015C951.029,235.015 954.375,234.939 959.036,234.781L972.728,234.316L972.728,117.353L958.555,117.353C948.363,117.353 940.97,115.495 938.271,112.254C937.392,111.201 935.104,107.653 933.869,98.321L971.141,98.321L971.141,-19.568L933.049,-19.568L933.049,-106.163L819.904,-106.163L819.904,-40.34C814.48,-47.796 808.395,-54.958 801.662,-61.804C767.673,-96.353 726.322,-113.87 678.755,-113.87C650.934,-113.87 625.064,-108.459 601.863,-97.786C595.021,-94.638 588.363,-91.01 581.915,-86.921L590.329,-106.163L456.366,-106.163L452.796,-97.267L435.316,-53.694L419.64,-96.831L416.249,-106.163L202.508,-106.163L202.508,-39.402C196.915,-47.194 190.603,-54.667 183.583,-61.804C149.595,-96.353 108.244,-113.871 60.677,-113.871M60.677,-99.697C104.511,-99.697 142.11,-83.751 173.478,-51.866C195.937,-29.031 210.305,-2.963 216.682,26.302L216.682,-91.99L406.319,-91.99L434.662,-13.997L465.951,-91.99L568.663,-91.99L540.623,-27.865C546.578,-36.517 553.493,-44.752 561.419,-52.546C575.49,-66.38 590.949,-77.163 607.787,-84.909C629.206,-94.763 652.859,-99.697 678.755,-99.697C722.589,-99.697 760.189,-83.751 791.556,-51.866C813.265,-29.794 827.396,-4.692 834.077,23.389L834.077,-91.99L918.875,-91.99L918.875,-5.395L956.967,-5.395L956.967,84.148L918.875,84.148C918.875,102.135 921.708,114.524 927.38,121.325C933.045,128.126 943.438,131.526 958.555,131.526L958.555,220.616C954.169,220.764 950.919,220.842 948.805,220.842C929.607,220.842 911.509,216.386 894.499,207.467C877.498,198.552 863.853,186.463 853.576,171.197C840.724,151.928 834.24,126.446 834.09,94.775L827.055,101.785L827.055,101.948L641.423,101.948C631.026,92.153 624.495,78.008 624.495,62.279C624.495,45.697 631.753,30.878 643.148,21.058L732.773,21.058C732.3,20.123 725.351,13.072 724.443,12.174C723.277,11.022 722.125,9.926 720.95,8.842C708.399,-2.718 693.449,-8.568 676.034,-8.568C658.802,-8.568 643.925,-2.718 631.347,8.842C630.132,9.959 628.912,11.063 627.74,12.287C626.543,13.538 625.464,14.839 624.375,16.135C621.572,19.475 619.13,22.971 617.034,26.615C610.892,37.294 607.787,49.284 607.787,62.613C607.787,82.261 614.475,99.036 627.853,112.938C641.23,126.844 657.289,133.793 676.034,133.793C689.026,133.793 700.66,130.569 710.945,124.134L770.806,194.109L770.712,195.324C743.425,215.189 711.875,225.149 676.034,225.149C651.283,225.149 628.541,220.298 607.787,210.652C600.271,207.158 593.016,203.033 586.022,198.281L586.022,242.399L611.15,242.399L611.15,295.604L586.022,295.604C586.022,306.291 587.891,313.654 591.63,317.694C595.371,321.736 602.224,323.756 612.197,323.756L612.197,376.692C609.304,376.781 607.161,376.827 605.765,376.827C593.101,376.827 581.161,374.179 569.943,368.879C558.725,363.582 549.726,356.399 542.946,347.328C537.384,339.816 533.638,330.708 531.684,320.025L531.684,374.806L475.744,374.806L475.744,312.576C475.744,305.483 473.824,299.826 469.986,295.604C466.146,291.384 460.986,289.273 454.505,289.273C448.621,289.273 443.536,291.205 439.25,295.065C434.96,298.927 432.818,303.507 432.818,308.804C432.818,314.373 434.762,318.952 438.651,322.543C442.54,326.136 447.476,327.931 453.458,327.931C458.342,327.931 462.881,326.765 467.07,324.429L467.07,376.557C462.482,377.275 458.293,377.634 454.505,377.634C432.07,377.634 413.374,370.99 398.417,357.7C383.459,344.41 375.981,327.752 375.981,307.727C375.981,302.077 376.636,296.685 377.907,291.534C375.342,290.574 372.944,290.081 370.72,290.081C360.549,290.081 355.463,297.085 355.463,311.094L355.463,374.806L299.524,374.806L299.524,320.423L296.708,323.229L296.708,323.3L215.992,323.3C211.47,319.04 208.631,312.89 208.631,306.05C208.631,298.84 211.787,292.397 216.742,288.127L255.713,288.127C255.507,287.721 252.486,284.655 252.09,284.264C251.583,283.763 251.083,283.286 250.572,282.816C245.114,277.788 238.614,275.244 231.042,275.244C223.548,275.244 217.08,277.788 211.61,282.816C211.082,283.301 210.551,283.781 210.042,284.314C209.521,284.857 209.052,285.423 208.579,285.987C207.36,287.439 206.298,288.958 205.387,290.543C202.716,295.187 201.366,300.4 201.366,306.196C201.366,314.74 204.274,322.034 210.091,328.078C215.908,334.125 222.891,337.147 231.042,337.147C236.691,337.147 241.75,335.744 246.221,332.947L272.25,363.373L272.209,363.902C260.344,372.539 246.626,376.87 231.042,376.87C220.279,376.87 210.39,374.761 201.366,370.567C194.022,367.153 187.249,362.363 181.057,356.171C172.175,347.291 166.168,337.222 163.001,325.975L163.001,374.806L107.062,374.806L107.062,298.972C107.062,291.249 103.521,287.388 96.443,287.388C89.462,287.388 85.973,291.249 85.973,298.972L85.973,374.806L30.034,374.806L30.034,321.166L27.964,323.229L27.964,323.3L-52.753,323.3C-57.274,319.04 -60.114,312.89 -60.114,306.05C-60.114,298.84 -56.958,292.397 -52.003,288.127L-13.032,288.127C-13.238,287.721 -16.259,284.655 -16.655,284.264C-17.162,283.763 -17.662,283.286 -18.173,282.816C-23.63,277.788 -30.131,275.244 -37.704,275.244C-45.196,275.244 -51.666,277.788 -57.134,282.816C-57.663,283.301 -58.193,283.781 -58.703,284.314C-59.223,284.857 -59.692,285.423 -60.166,285.987C-61.385,287.439 -62.447,288.958 -63.358,290.543C-66.029,295.187 -67.379,300.4 -67.379,306.196C-67.379,314.74 -64.471,322.034 -58.654,328.078C-52.837,334.125 -45.854,337.147 -37.704,337.147C-32.054,337.147 -26.996,335.744 -22.524,332.947L3.506,363.373L3.465,363.902C-8.4,372.539 -22.119,376.87 -37.704,376.87C-48.466,376.87 -58.354,374.761 -67.379,370.567C-74.723,367.153 -81.496,362.363 -87.688,356.171C-93.573,350.287 -98.191,343.879 -101.567,336.956L-101.567,356.353C-101.567,380.328 -109.121,399.792 -124.228,414.744C-139.334,429.695 -159.002,437.17 -183.233,437.17L-211.203,432.187L-211.203,386.39C-203.925,389.98 -196.545,391.778 -189.066,391.778C-178.996,391.778 -171.218,388.791 -165.733,382.821C-160.25,376.847 -157.507,368.296 -157.507,357.16L-157.507,306.65C-157.507,292.552 -163.84,285.501 -176.502,285.501C-181.887,285.501 -186.598,287.367 -190.637,291.092C-194.675,294.819 -196.694,299.106 -196.694,303.955C-196.694,309.074 -194.776,313.34 -190.936,316.751C-187.099,320.165 -182.335,321.87 -176.652,321.87C-172.864,321.87 -169.225,321.062 -165.733,319.446L-165.733,365.647C-173.81,368.34 -181.539,369.688 -188.917,369.688C-206.965,369.688 -222.248,363.537 -234.76,351.234C-247.275,338.932 -253.531,323.891 -253.531,306.111C-253.531,286.895 -246.003,270.685 -230.946,257.485C-215.891,244.285 -197.393,237.685 -175.455,237.685C-163.789,237.685 -152.623,239.795 -141.952,244.015C-131.283,248.238 -122.907,253.895 -116.824,260.987C-111.477,267.172 -107.549,274.836 -105.013,283.95C-101.679,273.591 -95.867,264.31 -87.541,256.122C-81.422,250.107 -74.701,245.418 -67.379,242.05C-58.065,237.766 -47.781,235.62 -36.521,235.62C-17.46,235.62 -1.111,242.554 12.528,256.418C21.907,265.954 28.035,276.791 30.962,288.907C33.148,276.137 39.258,265.051 49.328,255.666C62.191,243.678 77.945,237.685 96.592,237.685C117.929,237.685 135.032,244.645 147.895,258.563C155.442,266.705 160.161,277.244 162.052,290.177C164.875,277.277 171.242,265.918 181.204,256.122C187.323,250.107 194.044,245.418 201.366,242.05C210.679,237.766 220.964,235.62 232.225,235.62C251.285,235.62 267.634,242.554 281.273,256.418C291.073,266.383 297.333,277.763 300.09,290.543C300.111,290.639 300.13,290.758 300.15,290.86C301.948,276.316 307.622,264.36 317.173,254.993C328.938,243.455 344.643,237.685 364.289,237.685C368.675,237.685 374.359,238.179 381.339,239.166L381.339,281.445C385.113,272.901 390.87,265.134 398.64,258.159C413.748,244.6 432.119,237.819 453.757,237.819C477.887,237.819 496.909,244.173 510.819,256.879C520.899,266.088 527.307,277.749 530.082,291.838L530.082,190.945L576.072,190.945C570.921,186.846 565.921,182.386 561.079,177.544C529.335,145.808 513.464,107.497 513.464,62.613C513.464,50.075 514.733,38.089 517.177,26.615C517.308,26.001 517.464,25.398 517.601,24.787L433.754,216.546L308.736,-71.306L308.736,91.856C308.736,106.215 311.039,115.771 315.652,120.532C320.261,125.292 329.369,127.672 342.974,127.672L347.735,127.672L347.735,217.442L323.248,217.442C289.69,217.442 263.538,207.659 244.796,188.085C226.052,168.516 216.682,141.352 216.682,106.591L216.682,94.108L208.977,101.785L208.977,101.948L23.345,101.948C12.947,92.152 6.416,78.008 6.416,62.278C6.416,45.697 13.675,30.878 25.069,21.058L114.695,21.058C114.222,20.123 107.273,13.072 106.364,12.174C105.198,11.022 104.047,9.926 102.871,8.842C90.321,-2.718 75.371,-8.568 57.956,-8.568C40.724,-8.568 25.846,-2.718 13.269,8.842C12.053,9.959 10.833,11.062 9.661,12.287C8.465,13.538 7.386,14.838 6.297,16.135C3.494,19.474 1.052,22.97 -1.044,26.615C-7.187,37.294 -10.292,49.284 -10.292,62.612C-10.292,82.26 -3.603,99.035 9.774,112.937C23.152,126.844 39.211,133.793 57.956,133.793C70.948,133.793 82.582,130.569 92.866,124.134L152.728,194.109L152.634,195.324C125.347,215.189 93.797,225.149 57.956,225.149C33.204,225.149 10.462,220.298 -10.292,210.651C-27.181,202.8 -42.758,191.784 -57,177.544C-88.743,145.807 -104.614,107.497 -104.614,62.612C-104.614,50.713 -103.458,39.317 -101.252,28.378L-183.529,216.546L-317.531,-91.99L-210.964,-91.99L-182.622,-13.997L-151.333,-91.99L-48.621,-91.99L-75.34,-30.883C-69.878,-38.437 -63.661,-45.662 -56.66,-52.546C-42.588,-66.38 -27.13,-77.163 -10.292,-84.91C11.127,-94.763 34.781,-99.697 60.677,-99.697" style="fill:white;fill-rule:nonzero;"/>
        </g>
        <g transform="matrix(1,0,0,1,1297.48,605.979)">
            <path d="M0,28.555C-4.239,32.508 -9.348,34.482 -15.331,34.482C-21.215,34.482 -26.275,32.508 -30.513,28.555C-34.752,24.606 -36.869,19.846 -36.869,14.278C-36.869,8.62 -34.775,3.838 -30.587,-0.067C-26.398,-3.974 -21.313,-5.926 -15.331,-5.926C-9.25,-5.926 -4.113,-3.974 0.075,-0.067C4.263,3.838 6.356,8.62 6.356,14.278C6.356,19.846 4.237,24.606 0,28.555M128.739,-55.63C110.093,-55.63 94.338,-49.636 81.476,-37.648C69.497,-26.485 63.103,-12.924 62.278,3.029C59.867,-11.416 52.628,-24.125 40.533,-35.089C25.427,-48.781 7.304,-55.63 -13.835,-55.63C-36.371,-55.63 -55.317,-48.917 -70.672,-35.493C-80.693,-26.731 -87.423,-16.633 -90.904,-5.215L-90.904,-52.801L-146.844,-52.801L-146.844,81.492L-90.904,81.492L-90.904,33.242C-87.423,44.569 -80.693,54.708 -70.672,63.644C-55.317,77.339 -36.82,84.185 -15.182,84.185C6.455,84.185 24.927,77.362 40.234,63.711C52.356,52.902 59.659,40.281 62.181,25.865L62.181,81.492L118.12,81.492L118.12,5.658C118.12,-2.065 121.609,-5.926 128.59,-5.926C135.669,-5.926 139.21,-2.065 139.21,5.658L139.21,81.492L195.149,81.492L195.149,10.641C195.149,-8.756 190.112,-23.885 180.042,-34.752C167.18,-48.67 150.076,-55.63 128.739,-55.63" style="fill:rgb(237,26,78);fill-rule:nonzero;"/>
        </g>
    </g>
</svg>
